<?xml version="1.0" encoding="utf-8"?>
<!-- Generator: Adobe Illustrator 21.0.2, SVG Export Plug-In . SVG Version: 6.00 Build 0)  -->
<svg version="1.1" id="Layer_1" xmlns="http://www.w3.org/2000/svg" xmlns:xlink="http://www.w3.org/1999/xlink" x="0px" y="0px"
	 viewBox="0 0 90.2 58" style="enable-background:new 0 0 90.2 58;" xml:space="preserve">
<style type="text/css">
	.st0{fill:#0079C0;}
	.st1{fill:#231F20;}
</style>
<g>
	<g>
		<path class="st0" d="M68.8,25.5c-0.3,0-0.6-0.2-0.6-0.6c0-0.3,0.2-0.6,0.6-0.6c0.3,0,0.6,0.2,0.6,0.6
			C69.4,25.3,69.2,25.5,68.8,25.5 M68.8,25.6c0.3,0,0.6-0.3,0.6-0.6c0-0.3-0.3-0.6-0.6-0.6s-0.6,0.3-0.6,0.6
			C68.2,25.3,68.5,25.6,68.8,25.6 M68.7,25h0.1l0.2,0.3h0.1L68.9,25c0.1,0,0.2-0.1,0.2-0.2s-0.1-0.2-0.3-0.2h-0.3v0.8h0.1L68.7,25
			L68.7,25z M68.7,24.9v-0.2h0.2c0.1,0,0.1,0,0.1,0.1C69,25,68.9,25,68.7,24.9L68.7,24.9L68.7,24.9z"/>
		<path class="st0" d="M69.8,12.3c-1.3,0.7-2.5,1-4.5,1c-1.9,0-3.1-0.3-4.5-1c-0.5,0.9-0.8,2.2-0.8,3.8c0,4.3,2.4,7.2,3,7.8
			c0.6,0.6,1.7,1.6,2.2,1.7c0.5-0.1,1.6-1,2.2-1.7c0.6-0.6,3-3.5,3-7.8C70.6,14.4,70.3,13.2,69.8,12.3 M67.3,22.7
			c-0.3,0.5-1.7,1.7-2,1.7c-0.3-0.1-1.7-1.3-2-1.7C63,22.4,61,19.9,61,16c0-0.8,0.1-2,0.4-2.4c0.8,0.4,2.3,0.8,3.9,0.8
			s3.1-0.4,3.9-0.8c0.3,0.5,0.4,1.7,0.4,2.5C69.6,19.9,67.6,22.5,67.3,22.7"/>
		<path class="st0" d="M69,14.2c-0.7,0.3-2.2,0.6-3.6,0.6c-1.5,0-2.9-0.2-3.6-0.6c-0.3,0.4-0.3,1.4-0.3,2.2c0.1,3.8,1.9,5.7,2.1,6.1
			c0.3,0.4,1.6,1.6,1.8,1.6c0.2-0.1,1.5-1.3,1.8-1.6c0.3-0.3,2-2.2,2.2-6.1C69.3,15.6,69.2,14.6,69,14.2 M64.8,22.9L64.8,22.9
			c-0.1,0-0.1-0.2-0.1-0.2c0-0.2,0.1-0.5,0.3-0.5v0.3C64.8,22.7,64.8,22.9,64.8,22.9 M65.5,22.5c0,0.4-0.1,0.8-0.1,0.8
			c0,0-0.2,0.1-0.3,0c0-0.1,0-0.3,0-0.6c0-0.3,0-0.6-0.1-1c0.1,0,0.1,0,0.1,0.1c0.1,0,0.2,0.1,0.2,0.1
			C65.5,21.9,65.5,22.2,65.5,22.5 M65.5,22.4V22c0-0.1-0.1-0.1-0.1-0.2c-0.1-0.1-0.1-0.1-0.2-0.1c-0.1,0-0.1-0.1-0.2-0.1
			c-0.9-0.2-0.7-1.1-0.1-1.1c0,0.1,0,0.1,0,0.2c0,0.1,0,0.1,0,0.3c-0.1,0.1-0.1,0.1,0,0.1c0.1,0,0.3,0.1,0.3,0.1s0.2,0.1,0.3,0.1
			C66.2,21.5,66.1,22.1,65.5,22.4 M65.5,20.8c0,0.1,0,0.2,0,0.3c-0.1,0-0.1-0.1-0.3-0.1c-0.1-0.1-0.1-0.1-0.2-0.1v-0.1v-0.1v-0.2
			c0-0.1,0-0.3,0-0.3c0.1,0,0.1,0,0.2,0c0.2,0,0.2,0,0.3,0c0,0,0,0.1,0,0.2s0,0.1,0,0.3C65.5,20.6,65.5,20.6,65.5,20.8 M65.6,20.8
			c0-0.1,0-0.2,0-0.3c0-0.1,0-0.1,0-0.1c0.1-0.1,0.2-0.1,0.1-0.3C65.6,20,65.4,20,65.2,20c-0.1,0-0.2,0-0.5-0.1
			c-0.8-0.1-0.7-1.1-0.2-1.3l0.1,0.3l0.1,0.3c0.2,0,0.3,0,0.6,0.1c0.1,0,0.1,0,0.3,0.1C66.6,19.6,66.4,20.7,65.6,20.8 M64.6,18.4
			l0.2-0.3l0.7,0.1v1.1L65,19.2l-0.1-0.3L64.6,18.4z M65.7,19.1c-0.1-0.3-0.1-0.7-0.1-0.7c0.3,0,0.1-0.3,0-0.3c-0.1,0-0.2,0-0.4-0.1
			c-0.1,0-0.3,0-0.5-0.1c-2-0.3-1.7-2.1-0.7-2.2c0.7-0.1,1.1,0.1,1.2,0.4c0,0-0.2,0.1-0.3,0.1c-0.3-0.1-0.5,0-0.5,0
			c0.1,0.1,0.5,0.1,0.6,0.3c-0.1,0.1-0.3,0.1-0.6,0.1c-0.1,0-0.3-0.1-0.4-0.1c-0.1,0.2-0.1,0.6,0.7,0.8c0.1,0,0.3,0.1,0.4,0.1
			c0.1,0,0.3,0.1,0.5,0.1c0.1,0,0.1,0.1,0.1,0.1C67,17.7,66.6,19.1,65.7,19.1 M66.6,16.2c-0.5,0.5-0.8,0.8-0.9,0.9
			c0,0-0.1,0.1-0.1,0.1l-0.7-0.1c0-0.1-0.1-0.3,0-0.5c0.1,0,0.2,0,0.3-0.1v-0.1c0.2,0.1,0.4,0.1,0.5,0.1l-0.1-0.1
			c-0.1,0-0.2-0.1-0.3-0.1c0.1,0,0.2-0.1,0.2-0.1s0-0.1-0.1-0.2c-0.1-0.2-0.3-0.3-0.3-0.3c-0.1-0.1,0-0.1,0-0.1
			c0-0.3,0.1-0.2,0.4-0.1c-0.1,0-0.1,0.1-0.1,0.1c0.1,0.1,0.3,0.1,0.3,0.2c0,0,0,0.6,0.1,0.6c0.1-0.1,0.4-0.3,0.6-0.4
			C66.4,15.7,66.8,16,66.6,16.2"/>
		<path class="st0" d="M64.7,16C64.8,16,64.8,15.9,64.7,16c-0.1-0.1-0.3-0.1-0.3-0.1s0.1,0,0.2,0.1C64.6,16,64.6,16,64.7,16"/>
	</g>
	<g>
		<path class="st1" d="M25.6,22.9v-11h1v4.4c0.4-0.5,0.9-0.9,1.4-1.1c0.6-0.3,1.1-0.4,1.7-0.4c1.1,0,2.1,0.4,2.9,1.3
			c0.8,0.8,1.2,1.8,1.2,3c0,1.1-0.4,2.2-1.2,2.9c-0.8,0.8-1.7,1.2-2.9,1.2c-0.6,0-1.3-0.1-1.7-0.4c-0.6-0.3-1-0.7-1.4-1.3v1.5
			C26.6,22.9,25.6,22.9,25.6,22.9z M29.7,22.2c0.6,0,1.1-0.1,1.6-0.4c0.5-0.3,0.8-0.7,1.1-1.2s0.4-1,0.4-1.6s-0.1-1.1-0.4-1.6
			c-0.3-0.5-0.7-0.9-1.2-1.2c-0.5-0.3-1-0.4-1.5-0.4c-0.6,0-1.1,0.1-1.6,0.4c-0.5,0.3-0.9,0.7-1.2,1.1c-0.3,0.5-0.4,1-0.4,1.6
			c0,0.9,0.3,1.7,0.9,2.3C28,21.8,28.8,22.2,29.7,22.2z"/>
		<path class="st1" d="M35.6,11.9h1v11h-1V11.9z"/>
		<path class="st1" d="M38.6,15h1v3.7c0,0.9,0.1,1.5,0.1,1.9c0.1,0.5,0.4,0.8,0.8,1.2c0.4,0.3,0.9,0.4,1.5,0.4c0.6,0,1-0.1,1.5-0.4
			c0.4-0.3,0.7-0.6,0.8-1.1c0.1-0.3,0.1-1,0.1-2V15h1v3.9c0,1.1-0.1,2-0.3,2.4c-0.3,0.6-0.6,1-1.2,1.3c-0.5,0.3-1.2,0.5-2,0.5
			c-0.8,0-1.4-0.1-2-0.5c-0.5-0.3-0.9-0.8-1.2-1.3c-0.3-0.6-0.3-1.4-0.3-2.5V15z"/>
		<path class="st1" d="M54.5,20.3l0.8,0.4c-0.3,0.6-0.6,1-1,1.3c-0.3,0.3-0.8,0.6-1.3,0.8c-0.5,0.2-1,0.3-1.6,0.3
			c-1.3,0-2.3-0.4-3.1-1.3C47.8,21,47.3,20,47.3,19c0-1,0.3-1.9,0.9-2.7c0.8-1,1.8-1.5,3.1-1.5c1.3,0,2.4,0.5,3.2,1.5
			c0.6,0.7,0.8,1.6,0.9,2.7h-7c0,0.9,0.3,1.7,0.9,2.3c0.6,0.6,1.3,0.9,2.1,0.9c0.4,0,0.8-0.1,1.2-0.2c0.3-0.1,0.7-0.3,1-0.6
			C53.9,21.2,54.3,20.8,54.5,20.3z M54.5,18.1c-0.1-0.6-0.3-1-0.6-1.3c-0.3-0.3-0.6-0.6-1-0.8c-0.4-0.2-0.9-0.3-1.3-0.3
			c-0.8,0-1.5,0.3-2,0.8c-0.4,0.3-0.7,0.9-0.9,1.7L54.5,18.1L54.5,18.1z"/>
	</g>
	<g>
		<path class="st1" d="M8.1,33.6c1.3,0,2.2,0.4,3.1,1.3c0.7,0.8,1.1,1.7,1.1,2.9c0,1.1-0.4,2.1-1.2,2.9c-0.8,0.8-1.7,1.3-3,1.3
			c-1.2,0-2.2-0.4-3-1.3S3.9,39,3.9,37.8s0.3-2,1.1-2.9C5.8,34.1,6.9,33.6,8.1,33.6z M8.1,34.6c-0.8,0-1.6,0.3-2.2,0.9
			C5.3,36.2,5,36.9,5,37.8c0,0.6,0.1,1.1,0.4,1.6c0.3,0.5,0.6,0.9,1.1,1.1C7,40.8,7.5,41,8.1,41s1.1-0.1,1.5-0.4
			c0.5-0.3,0.8-0.6,1.1-1.1c0.3-0.5,0.4-1,0.4-1.6c0-0.9-0.3-1.7-0.9-2.3C9.7,35,8.9,34.6,8.1,34.6z"/>
		<path class="st1" d="M17.3,30.8v1c-0.3-0.1-0.7-0.2-1-0.2c-0.2,0-0.3,0.1-0.5,0.1c-0.1,0.1-0.2,0.1-0.3,0.3c0,0.1-0.1,0.3-0.1,0.8
			v1h1.7v0.9h-1.7v7.1h-1v-7.1h-1v-0.9h1v-1.3c0-0.6,0.1-1,0.1-1.2c0.1-0.2,0.3-0.4,0.6-0.6c0.3-0.1,0.6-0.2,0.9-0.2
			C16.5,30.6,16.9,30.6,17.3,30.8z"/>
		<path class="st1" d="M30.6,35.5L29.8,36c-0.7-0.9-1.7-1.4-2.9-1.4c-1,0-1.7,0.3-2.4,0.9c-0.6,0.6-1,1.4-1,2.2
			c0,0.6,0.1,1.1,0.4,1.6c0.3,0.5,0.7,0.9,1.2,1.2c0.5,0.3,1.1,0.4,1.7,0.4c1.2,0,2.1-0.5,2.9-1.4l0.8,0.6c-0.3,0.6-0.9,1-1.5,1.3
			c-0.6,0.3-1.4,0.5-2.2,0.5c-1.3,0-2.3-0.4-3.1-1.2c-0.8-0.8-1.3-1.7-1.3-2.9c0-0.8,0.2-1.5,0.6-2.2c0.4-0.6,0.9-1.2,1.6-1.5
			s1.5-0.6,2.3-0.6c0.6,0,1,0.1,1.5,0.2s0.9,0.3,1.3,0.6C30.1,34.8,30.4,35.1,30.6,35.5z"/>
		<path class="st1" d="M39.7,33.9v8h-1v-1.4c-0.4,0.5-0.9,0.9-1.5,1.2c-0.6,0.3-1.1,0.4-1.7,0.4c-1.1,0-2.1-0.4-2.9-1.3
			c-0.8-0.8-1.2-1.8-1.2-3c0-1.1,0.4-2.1,1.2-2.9c0.8-0.8,1.7-1.2,2.9-1.2c0.6,0,1.3,0.1,1.7,0.4c0.6,0.3,1,0.7,1.4,1.3v-1.5H39.7z
			 M35.6,34.6c-0.6,0-1.1,0.1-1.6,0.4c-0.5,0.3-0.8,0.7-1.1,1.2c-0.3,0.5-0.4,1-0.4,1.6c0,0.6,0.1,1.1,0.4,1.6
			c0.3,0.5,0.7,0.9,1.2,1.2c0.5,0.3,1,0.4,1.5,0.4c0.6,0,1.1-0.1,1.6-0.4c0.5-0.3,0.9-0.7,1.2-1.1c0.3-0.5,0.4-1,0.4-1.6
			c0-0.9-0.3-1.7-0.9-2.3C37.2,35,36.4,34.6,35.6,34.6z"/>
		<path class="st1" d="M41.5,30.8h1v11h-1V30.8z"/>
		<path class="st1" d="M45.3,30.6c0.2,0,0.4,0.1,0.6,0.3c0.1,0.1,0.3,0.3,0.3,0.6c0,0.2-0.1,0.4-0.3,0.6c-0.1,0.1-0.3,0.3-0.6,0.3
			c-0.2,0-0.4-0.1-0.6-0.3c-0.1-0.1-0.3-0.3-0.3-0.6s0.1-0.4,0.3-0.6C44.9,30.6,45.1,30.6,45.3,30.6z M44.8,33.9h1v8h-1
			C44.8,41.8,44.8,33.9,44.8,33.9z"/>
		<path class="st1" d="M51.5,30.8v1c-0.3-0.1-0.7-0.2-1-0.2c-0.2,0-0.3,0.1-0.5,0.1c-0.1,0.1-0.2,0.1-0.3,0.3c0,0.1-0.1,0.3-0.1,0.8
			v1h1.7v0.9h-1.7v7.1h-1v-7.1h-1v-0.9h1v-1.3c0-0.6,0.1-1,0.1-1.2c0.1-0.2,0.3-0.4,0.6-0.6c0.3-0.1,0.6-0.2,0.9-0.2
			C50.7,30.6,51,30.6,51.5,30.8z"/>
		<path class="st1" d="M56.4,33.6c1.3,0,2.2,0.4,3.1,1.3c0.7,0.8,1.1,1.7,1.1,2.9c0,1.1-0.4,2.1-1.2,2.9s-1.7,1.3-3,1.3
			c-1.2,0-2.2-0.4-3-1.3s-1.2-1.8-1.2-2.9s0.3-2,1.1-2.9C54.2,34.1,55.2,33.6,56.4,33.6z M56.4,34.6c-0.8,0-1.6,0.3-2.2,0.9
			c-0.6,0.6-0.9,1.4-0.9,2.3c0,0.6,0.1,1.1,0.4,1.6c0.3,0.5,0.6,0.9,1.1,1.1c0.5,0.3,1,0.4,1.5,0.4c0.6,0,1.1-0.1,1.5-0.4
			c0.5-0.3,0.8-0.6,1.1-1.1c0.3-0.5,0.4-1,0.4-1.6c0-0.9-0.3-1.7-0.9-2.3C58,35,57.3,34.6,56.4,34.6z"/>
		<path class="st1" d="M62.1,33.9h1V35c0.3-0.5,0.6-0.8,1-1c0.3-0.2,0.7-0.3,1-0.3c0.3,0,0.6,0.1,0.9,0.3l-0.6,0.8
			c-0.2-0.1-0.4-0.1-0.6-0.1c-0.3,0-0.7,0.1-1,0.4c-0.3,0.3-0.6,0.7-0.7,1.3c-0.1,0.4-0.2,1.4-0.2,2.7v2.7h-1L62.1,33.9L62.1,33.9z"
			/>
		<path class="st1" d="M67,33.9h1v1.4c0.4-0.6,0.8-1,1.3-1.3c0.5-0.3,1-0.4,1.6-0.4c0.6,0,1.1,0.1,1.6,0.4c0.5,0.3,0.8,0.7,1,1.2
			c0.2,0.5,0.3,1.3,0.3,2.4v4.1h-1v-3.8c0-0.9-0.1-1.5-0.1-1.8c-0.1-0.6-0.3-0.9-0.7-1.2c-0.3-0.3-0.8-0.4-1.3-0.4
			c-0.6,0-1.2,0.2-1.7,0.6c-0.5,0.4-0.8,0.9-1,1.5C68,37.1,68,37.8,68,38.8v2.9h-1L67,33.9L67,33.9z"/>
		<path class="st1" d="M76.4,30.6c0.2,0,0.4,0.1,0.6,0.3c0.1,0.1,0.3,0.3,0.3,0.6c0,0.2-0.1,0.4-0.3,0.6c-0.1,0.1-0.3,0.3-0.6,0.3
			c-0.2,0-0.4-0.1-0.6-0.3c-0.1-0.1-0.3-0.3-0.3-0.6s0.1-0.4,0.3-0.6C76,30.6,76.2,30.6,76.4,30.6z M75.9,33.9h1v8h-1V33.9z"/>
		<path class="st1" d="M87.1,33.9v8h-1v-1.4c-0.4,0.5-0.9,0.9-1.5,1.2C84,41.9,83.5,42,82.9,42c-1.1,0-2.1-0.4-2.9-1.3
			c-0.8-0.8-1.2-1.8-1.2-3c0-1.1,0.4-2.1,1.2-2.9c0.8-0.8,1.7-1.2,2.9-1.2c0.6,0,1.3,0.1,1.7,0.4c0.6,0.3,1,0.7,1.4,1.3v-1.5H87.1z
			 M82.9,34.6c-0.6,0-1.1,0.1-1.6,0.4c-0.5,0.3-0.8,0.7-1.1,1.2c-0.3,0.5-0.4,1-0.4,1.6c0,0.6,0.1,1.1,0.4,1.6
			c0.3,0.5,0.7,0.9,1.2,1.2c0.5,0.3,1,0.4,1.5,0.4c0.6,0,1.1-0.1,1.6-0.4c0.5-0.3,0.9-0.7,1.2-1.1c0.3-0.5,0.4-1,0.4-1.6
			c0-0.9-0.3-1.7-0.9-2.3C84.6,35,83.8,34.6,82.9,34.6z"/>
	</g>
</g>
</svg>
