<?xml version="1.0" encoding="utf-8"?>
<!-- Generator: Adobe Illustrator 21.0.2, SVG Export Plug-In . SVG Version: 6.00 Build 0)  -->
<svg version="1.1" id="Layer_1" xmlns="http://www.w3.org/2000/svg" xmlns:xlink="http://www.w3.org/1999/xlink" x="0px" y="0px"
	 viewBox="0 0 90.7 58" style="enable-background:new 0 0 90.7 58;" xml:space="preserve">
<style type="text/css">
	.st0{fill:#706259;}
	.st1{fill:#820024;}
</style>
<g>
	<g>
		<path class="st0" d="M47.1,17.4c0.1-1.1,0.2-1.9,0.5-2.6c-0.3-0.1-0.8-0.2-1.3-0.3c-1.1-0.2-2-0.4-2.8-0.4c-1.6,0-2.8,0.2-3.9,0.8
			c-1,0.5-1.9,1.2-2.4,2.2c-0.5,0.9-0.9,2-0.9,3.2s0.3,2.3,0.9,3.2s1.4,1.7,2.4,2.3c1.1,0.5,2.3,0.8,3.7,0.8c0.7,0,1.3-0.1,2-0.2
			c0.7-0.2,1.3-0.4,2-0.8c0.1-0.2,0.2-0.5,0.3-0.8l-0.2-0.2c-0.5,0.4-1.1,0.7-1.7,0.8c-0.8,0.2-1.5,0.2-2.3,0.2
			c-0.9,0-1.9-0.2-2.7-0.8c-0.9-0.5-1.6-1.2-2-2S38,21,38,19.8c0-1.6,0.5-2.8,1.4-3.7c0.9-0.9,2.2-1.4,3.7-1.4
			c0.6,0,1.2,0.1,1.7,0.2s1.1,0.4,1.6,0.8l0.1,1.5h0.7C47.1,17.2,47.1,17.4,47.1,17.4z M60,17.4c0.1-1.1,0.2-1.9,0.5-2.6
			c-0.3-0.1-0.8-0.2-1.3-0.3c-1.1-0.2-2-0.4-2.8-0.4c-1.6,0-2.8,0.2-3.9,0.8c-1,0.5-1.9,1.2-2.4,2.2c-0.5,0.9-0.9,2-0.9,3.2
			s0.3,2.3,0.9,3.2c0.5,0.9,1.4,1.7,2.4,2.3c1.1,0.5,2.3,0.8,3.7,0.8c0.7,0,1.3-0.1,2-0.2s1.3-0.4,2-0.8c0.1-0.2,0.2-0.5,0.3-0.8
			l-0.2-0.2c-0.5,0.4-1.1,0.7-1.7,0.8c-0.8,0.2-1.5,0.2-2.3,0.2c-0.9,0-1.9-0.2-2.7-0.8c-0.9-0.5-1.6-1.2-2-2s-0.7-1.8-0.7-3
			c0-1.6,0.5-2.8,1.4-3.7c0.9-0.9,2.2-1.4,3.7-1.4c0.6,0,1.2,0.1,1.7,0.2s1.1,0.4,1.6,0.8l0.1,1.5H60V17.4z M69,20.4
			c1.2,0,2.3,0,3,0.1v2.2c0,1.1,0,1.9-0.1,2.6c0,0.2-0.1,0.5-0.2,0.5c-0.2,0.1-0.4,0.2-0.9,0.2h-0.6v0.5c0.9-0.1,1.7-0.1,2.7-0.1
			c0.9,0,1.6,0,2.4,0.1V26h-0.7c-0.5,0-0.9-0.1-0.9-0.3s-0.2-1.2-0.2-2.9V18c0-1.4,0-2.2,0-2.4s0.1-0.5,0.2-0.5s0.4-0.2,0.9-0.2h0.6
			v-0.5c-0.9,0-1.8,0.1-2.7,0.1c-0.8,0-1.6,0-2.5-0.1v0.5h0.6c0.4,0,0.7,0.1,0.8,0.2c0.2,0.1,0.2,0.2,0.2,0.5
			c0.1,0.6,0.1,1.5,0.1,2.4v1.6c-0.9,0-1.9,0.1-3.3,0.1c-1.6,0-2.9,0-3.9-0.1v-1.9c0-1.2,0-1.9,0.1-2.3c0-0.2,0.1-0.3,0.2-0.4
			s0.5-0.2,1-0.2h0.4v-0.5c-0.8,0-1.6,0.1-2.3,0.1c-0.8,0-1.7,0-2.7-0.1v0.5H62c0.5,0,0.9,0.1,0.9,0.3c0.1,0.2,0.2,1,0.2,2.5v5.1
			c0,1.6-0.1,2.6-0.2,2.7c-0.1,0.2-0.5,0.3-1.1,0.3h-0.5v0.5c1.2-0.1,2.2-0.1,2.9-0.1c0.7,0,1.4,0,2.1,0.1v-0.5h-0.5
			c-0.3,0-0.5-0.1-0.7-0.2s-0.2-0.2-0.2-0.2c0-0.1-0.1-0.5-0.1-1.2c0-0.5-0.1-1-0.1-1.4v-2.3C65.9,20.4,67.2,20.4,69,20.4
			 M81.8,14.9c0.9,0,1.7,0.2,2.2,0.7c0.5,0.5,0.7,1.1,0.7,1.9c0,0.9-0.2,1.5-0.7,1.9s-1.1,0.7-1.9,0.7c-0.3,0-0.8-0.1-1.2-0.2
			l0.2,0.6c0.5,0.1,0.9,0.2,1.2,0.2c0.8,0,1.5-0.2,2.1-0.5s1.2-0.8,1.6-1.4c0.4-0.5,0.5-1.2,0.5-1.8c0-0.9-0.3-1.6-0.9-2
			c-0.6-0.5-1.6-0.8-3-0.8c-0.2,0-0.6,0-1.2,0c-0.8,0-1.5,0.1-2.1,0.1c-1.1,0-2,0-2.7-0.1v0.5H77c0.5,0,0.9,0.1,1.1,0.2
			c0.2,0.2,0.2,0.6,0.2,1.3V18v4.5c0,1.4-0.1,2.2-0.1,2.5c0,0.2-0.1,0.5-0.2,0.5c-0.1,0.1-0.3,0.2-0.7,0.2h-0.8v0.5
			c1.3-0.1,2.2-0.1,2.7-0.1s1.4,0,2.4,0.1v-0.5H81c-0.5,0-0.9-0.1-1-0.3s-0.2-1.2-0.2-2.9v-4.8c0-0.9,0-1.8,0.1-2.6
			C80.6,15.1,81.3,14.9,81.8,14.9"/>
		<g>
			<path class="st0" d="M37.3,41v-0.4c0.4,0,0.6-0.1,0.6-0.1c0.1,0,0.1-0.1,0.1-0.2s0.1-0.5,0.1-1.2v-2.4c0-0.8,0-1.2-0.1-1.3
				c0-0.1-0.1-0.1-0.1-0.1c-0.1,0-0.3-0.1-0.7-0.1v-0.4c0.5,0,1,0,1.4,0c0.5,0,1,0,1.5,0v0.4c-0.4,0-0.5,0.1-0.6,0.1l-0.1,0.1
				c0,0.1-0.1,0.2-0.1,0.5c0,0.4,0,0.9,0,1.2v0.4c0.3,0,0.8,0,1.5,0c0.6,0,1,0,1.3,0c0-0.9,0-1.6,0-1.9c0-0.2-0.1-0.2-0.1-0.3
				c-0.1-0.1-0.3-0.1-0.7-0.1v-0.4c0.7,0,1.2,0,1.5,0c0.5,0,0.9,0,1.4,0v0.4c-0.4,0-0.6,0.1-0.6,0.1l-0.1,0.1c0,0.1-0.1,0.3-0.1,0.7
				c0,0.6,0,1.2,0,1.6v1.9c0,0.5,0,0.7,0.1,0.8c0,0.1,0.1,0.1,0.1,0.2c0.1,0,0.2,0.1,0.6,0.1V41h-0.5c-0.4,0-0.6,0-0.9,0
				c-0.5,0-0.9,0-1.6,0v-0.4c0.4,0,0.6-0.1,0.6-0.1c0.1-0.1,0.1-0.2,0.1-0.4c0-0.3,0-1,0.1-2.1c-0.3,0-0.7,0-1.1,0
				c-0.6,0-1.2,0-1.6,0v0.3c0,0.8,0,1.3,0,1.7c0,0.2,0.1,0.4,0.1,0.5c0.1,0.1,0.3,0.1,0.7,0.1V41h-0.5c-0.3,0-0.6,0-0.9,0H37.3z"/>
			<path class="st0" d="M48.4,40.2l0.2,0.2l-0.2,0.4c-0.2,0.2-0.5,0.2-0.7,0.3s-0.5,0.1-0.8,0.1c-0.6,0-1.2-0.2-1.5-0.5
				c-0.4-0.4-0.5-0.9-0.5-1.6c0-0.4,0.1-0.8,0.2-1c0.1-0.2,0.2-0.4,0.5-0.5s0.5-0.3,0.7-0.4s0.5-0.2,0.9-0.2c0.5,0,0.9,0.2,1.2,0.4
				s0.5,0.7,0.5,1.3c0,0.1,0,0.2,0,0.3h-1c-0.2,0-0.5,0-0.9,0h-1c0.1,0.5,0.2,0.9,0.5,1.2c0.2,0.2,0.5,0.4,1,0.4
				c0.2,0,0.3,0,0.5-0.1C48.1,40.3,48.2,40.2,48.4,40.2z M45.9,38.4c0.2,0,0.5,0,0.8,0s0.5,0,0.7,0v-0.2c0-0.4-0.1-0.6-0.2-0.8
				s-0.3-0.2-0.5-0.2s-0.3,0-0.4,0.1S46,37.4,46,37.6C46,37.8,46,38.1,45.9,38.4z"/>
			<path class="st0" d="M53.2,40.6V41h-0.3c-0.2,0-0.4,0-0.5,0c-0.3,0-0.5,0-0.8,0l-0.1-0.1l0.1-0.6l-1,0.7c-0.2,0-0.3,0.1-0.5,0.1
				c-0.3,0-0.5-0.1-0.7-0.3s-0.2-0.5-0.2-0.8c0-0.5,0.1-0.8,0.3-0.9c0.3-0.2,0.9-0.5,1.9-0.6c0-0.3-0.1-0.6-0.2-0.8
				c-0.2-0.2-0.4-0.3-0.8-0.3c-0.1,0-0.2,0-0.2,0L50,37.5L49.8,38l-0.3-0.1v-0.2v-0.2v-0.2c0.5-0.3,0.8-0.5,0.9-0.5s0.3-0.1,0.6-0.1
				s0.6,0.1,0.9,0.2s0.4,0.2,0.5,0.4s0.2,0.5,0.2,0.8c0,0.2,0,0.4,0,0.8s0,0.7,0,0.9c0,0.4,0,0.6,0,0.7s0.1,0.1,0.1,0.1
				C52.8,40.6,53,40.6,53.2,40.6z M51.6,38.8c-0.5,0.1-0.9,0.2-1,0.4s-0.2,0.3-0.2,0.5s0.1,0.3,0.2,0.4c0.1,0.1,0.2,0.2,0.4,0.2
				s0.5-0.2,0.7-0.4L51.6,38.8L51.6,38.8z"/>
			<path class="st0" d="M53.7,35.2V35c0.4-0.1,0.8-0.1,1-0.2s0.5-0.2,0.8-0.2l0.1,0.1c-0.1,1-0.1,2.5-0.1,4.4c0,0.4,0,0.8,0,1.2
				c0,0.2,0,0.4,0.1,0.4c0,0.1,0.1,0.1,0.1,0.1c0.1,0,0.2,0.1,0.5,0.1v0.4h-0.5c-0.3,0-0.5,0-0.7,0h-1.3v-0.4H54
				c0.2,0,0.2,0,0.3-0.1s0.1-0.2,0.1-0.5c0-0.5,0-1.1,0-1.9v-1.9c0-0.5,0-0.9-0.1-0.9c0,0,0-0.1-0.1-0.1
				C54.2,35.2,54,35.2,53.7,35.2z"/>
			<path class="st0" d="M56.5,37.5l0.5-0.4c0-0.5,0-0.9-0.1-1.3c0.4-0.2,0.8-0.2,1.1-0.5l0.2,0.1c-0.1,0.4-0.1,1-0.2,1.7
				c0.2,0,0.2,0,0.4,0c0.3,0,0.5,0,0.8-0.1h0.1l-0.1,0.2c-0.1,0.2-0.1,0.3-0.1,0.5c-0.3,0-0.6,0-0.8,0s-0.2,0-0.3,0
				c0,0.3,0,0.5,0,0.8c0,1,0,1.6,0.1,1.6c0.1,0.2,0.2,0.2,0.4,0.2c0.1,0,0.2,0,0.2,0c0.1,0,0.2,0,0.2-0.1l0.1,0.2
				c-0.2,0.2-0.3,0.4-0.5,0.6c-0.1,0-0.2,0-0.3,0.1c-0.1,0-0.2,0-0.2,0c-0.2,0-0.5-0.1-0.6-0.2s-0.3-0.2-0.4-0.3s-0.1-0.3-0.1-0.6
				c0-0.2,0-0.5,0-1.1s0-0.9,0-1.2h-0.2c-0.1,0-0.2,0-0.4,0v-0.2C56.2,37.5,56.5,37.5,56.5,37.5z"/>
			<path class="st0" d="M59.6,41v-0.4c0.3,0,0.5-0.1,0.5-0.1l0.1-0.1c0-0.1,0.1-0.3,0.1-0.8V38c0-0.9,0-1.6,0-2.3
				c0-0.2,0-0.4-0.1-0.5s-0.2-0.1-0.5-0.1v-0.3c0.2,0,0.5,0,0.8-0.1s0.6-0.2,0.9-0.2c0.1,0,0.2-0.1,0.2-0.1c0.1,0,0.1,0,0.1,0.1l0,0
				c0,0.1,0,0.2,0,0.3v1.4c0,0.3,0,0.7,0,1.2l0.5-0.5c0.2-0.1,0.2-0.2,0.3-0.2c0.2-0.1,0.3-0.1,0.5-0.1c0.5,0,0.8,0.1,1,0.3
				s0.3,0.6,0.3,1.1v1.7c0,0.3,0,0.5,0,0.5l0.1,0.1c0.1,0,0.2,0.1,0.5,0.1v0.4c-0.4,0-0.7,0-0.9,0c-0.2,0-0.5,0-0.8,0L63,40.9
				c0.1-0.5,0.1-1.1,0.1-1.6c0-0.8-0.1-1.2-0.2-1.4c-0.1-0.2-0.3-0.3-0.6-0.3c-0.2,0-0.3,0.1-0.5,0.2c-0.2,0.1-0.2,0.2-0.3,0.3
				s-0.1,0.3-0.1,0.6V40c0,0.3,0,0.5,0.1,0.5c0,0,0,0.1,0.1,0.1s0.2,0.1,0.5,0.1V41c-0.3,0-0.7,0-1.1,0C60.5,41,60,41,59.6,41z"/>
			<path class="st0" d="M67.5,41v-0.4c0.3,0,0.5-0.1,0.6-0.1l0.1-0.1c0-0.1,0.1-0.4,0.1-0.9s0-1,0-1.6c0-0.9,0-1.6,0-2
				s-0.1-0.6-0.1-0.7c-0.1-0.1-0.2-0.1-0.4-0.1h-0.2v-0.4H68c0.3,0,0.5,0,0.7,0s0.6,0,1.2,0c0.3,0,0.5,0,0.6,0
				c0.5,0,0.9,0.1,1.2,0.2c0.2,0.1,0.5,0.2,0.5,0.5c0.2,0.2,0.2,0.5,0.2,0.8c0,0.5-0.2,1-0.5,1.3C71.5,37.9,71,38,70.4,38
				c-0.1,0-0.2,0-0.2,0S70,38,70,37.9c-0.1-0.1-0.1-0.2-0.2-0.3l0.1-0.1c0.1,0,0.2,0,0.2,0c0.1,0,0.1,0,0.2,0c0.3,0,0.5-0.1,0.7-0.3
				s0.3-0.5,0.3-0.9s-0.1-0.7-0.3-0.9c-0.2-0.2-0.5-0.3-0.9-0.3c-0.2,0-0.3,0-0.5,0.1c0,0.9-0.1,1.6-0.1,2.3c0,0.2,0,0.9,0,2
				c0,0.5,0,0.7,0.1,0.8c0,0.1,0.1,0.1,0.1,0.1c0.1,0,0.3,0.1,0.8,0.1v0.4c-0.5,0-0.9,0-1.3,0C68.9,41,68.3,41,67.5,41z"/>
			<path class="st0" d="M72.8,35.2V35c0.4-0.1,0.8-0.1,1-0.2c0.2-0.1,0.5-0.2,0.8-0.2l0.1,0.1c-0.1,1-0.1,2.5-0.1,4.4
				c0,0.4,0,0.8,0,1.2c0,0.2,0,0.4,0.1,0.4c0,0.1,0.1,0.1,0.1,0.1c0.1,0,0.2,0.1,0.5,0.1v0.4h-0.5c-0.3,0-0.5,0-0.7,0h-1.3v-0.4h0.3
				c0.2,0,0.2,0,0.3-0.1c0.1-0.1,0.1-0.2,0.1-0.5c0-0.5,0-1.1,0-1.9v-1.9c0-0.5,0-0.9-0.1-0.9c0,0,0-0.1-0.1-0.1
				C73.4,35.2,73.2,35.2,72.8,35.2z"/>
			<path class="st0" d="M79.9,40.6V41h-0.3c-0.2,0-0.4,0-0.5,0c-0.3,0-0.5,0-0.8,0l-0.1-0.1l0.1-0.6l-1,0.7c-0.2,0-0.3,0.1-0.5,0.1
				c-0.3,0-0.5-0.1-0.7-0.3s-0.2-0.5-0.2-0.8c0-0.5,0.1-0.8,0.3-0.9c0.3-0.2,0.9-0.5,1.9-0.6c0-0.3-0.1-0.6-0.2-0.8
				c-0.2-0.2-0.4-0.3-0.8-0.3c-0.1,0-0.2,0-0.2,0l-0.2,0.1L76.5,38l-0.3-0.1v-0.2v-0.2v-0.2c0.5-0.3,0.8-0.5,0.9-0.5
				s0.3-0.1,0.6-0.1s0.6,0.1,0.9,0.2c0.2,0.1,0.4,0.2,0.5,0.4s0.2,0.5,0.2,0.8c0,0.2,0,0.4,0,0.8s0,0.7,0,0.9c0,0.4,0,0.6,0,0.7
				s0.1,0.1,0.1,0.1C79.4,40.6,79.6,40.6,79.9,40.6z M78.2,38.8c-0.5,0.1-0.9,0.2-1,0.4S77,39.5,77,39.8c0,0.2,0.1,0.3,0.2,0.4
				c0.1,0.1,0.2,0.2,0.4,0.2c0.2,0,0.5-0.2,0.7-0.4L78.2,38.8L78.2,38.8z"/>
			<path class="st0" d="M80.3,41v-0.4c0.3,0,0.5-0.1,0.5-0.1c0.1,0,0.1-0.1,0.1-0.2c0-0.3,0-0.8,0-1.6c0-0.4,0-0.7,0-0.9
				s0-0.2,0-0.3c0,0,0-0.1-0.1-0.1s-0.2,0-0.5,0v-0.3c0.2,0,0.4,0,0.7-0.1s0.6-0.2,0.9-0.2l0.2-0.1c0.1,0,0.1,0,0.1,0.1v0.1
				c0,0.1,0,0.3,0,0.6l0.7-0.5c0.1-0.1,0.2-0.2,0.2-0.2c0.2,0,0.3-0.1,0.5-0.1c0.3,0,0.5,0.1,0.8,0.2c0.2,0.1,0.3,0.2,0.5,0.5
				c0.1,0.2,0.2,0.5,0.2,0.9c0,0.2,0,0.4,0,0.6c0,0.5,0,0.9,0,1.2c0,0.2,0,0.3,0.1,0.4c0,0.1,0.1,0.1,0.1,0.1c0.1,0,0.2,0.1,0.5,0.1
				V41h-0.5H85h-0.9L84,40.9c0.1-0.5,0.1-1.1,0.1-1.7c0-0.8-0.1-1.2-0.2-1.4s-0.3-0.3-0.6-0.3c-0.2,0-0.4,0.1-0.5,0.2
				S82.1,37.9,82,38c0,0.1,0,0.2,0,0.5c0,1.1,0,1.6,0,1.8s0,0.2,0.1,0.3s0.2,0.1,0.6,0.1V41c-0.5,0-0.9,0-1.3,0
				C81.2,41,80.9,41,80.3,41z"/>
		</g>
	</g>
	<g>
		<rect x="36.2" y="30.6" class="st1" width="50" height="0.5"/>
		<path class="st1" d="M5.8,45.7h25V9.6h-25C5.8,9.6,5.8,45.7,5.8,45.7z M31.8,46.7H4.7V8.5h27.1V46.7z"/>
		<g>
			<path class="st1" d="M8.5,10.3c-0.2,1.2-0.4,2.3-0.6,3.1c-0.2,0.9-0.6,1.7-1,2.7l0.2,0.2c0.3-0.4,0.6-0.9,0.9-1.2v3.4
				c0,0.8,0,1.6-0.1,2.3c0,0.2,0.2,0.3,0.4,0.3c0.1,0,0.2,0,0.3,0c0.4,0,0.6-0.1,0.6-0.3v-2.7c0.1,0.1,0.1,0.1,0.2,0.2
				c0.2,0.2,0.5,0.4,0.5,0.4s0.1-0.1,0.1-0.2c0,0,0-0.1,0-0.2s0-0.2-0.1-0.2c0,0,0-0.2,0.1-0.3c0.1-0.3,0.2-0.5,0.2-0.9
				c0-0.2,0.1-0.3,0.1-0.3c0.1,0,0.1,0.1,0.1,0.3c0,0.7,0.2,1.2,0.3,1.8c-0.3,0.9-0.7,1.6-1.2,2.3l0.2,0.2c0.4-0.3,0.9-0.7,1.2-1.3
				c0.1-0.1,0.2-0.2,0.2-0.4c0.4,0.5,0.9,0.9,1.6,1.1S14.8,21,17,21c0.2,0,0.2-0.2,0.3-0.5s0.3-0.6,0.7-0.9v-0.3
				c-1.1,0.2-2.1,0.3-3.2,0.3c-1.3,0-2.2-0.2-2.7-0.4c-0.3-0.1-0.5-0.3-0.7-0.5c0.1-0.2,0.2-0.3,0.2-0.5c0.2-0.7,0.5-1.6,0.6-2.7
				c0-0.1,0.1-0.2,0.3-0.2c0.2-0.1,0.3-0.2,0.3-0.2s-0.2-0.3-0.5-0.5s-0.5-0.3-0.6-0.3s-0.2,0.1-0.3,0.2c-0.1,0.1-0.2,0.2-0.2,0.2
				H11l1-2.3c0.1-0.2,0.2-0.2,0.4-0.2c0.2-0.1,0.3-0.1,0.3-0.2c0-0.1-0.2-0.3-0.5-0.5c-0.2-0.2-0.5-0.3-0.5-0.3s-0.2,0.1-0.3,0.2
				c-0.2,0.2-0.2,0.2-0.4,0.3h-0.1c-0.4,0-0.8,0-1.2-0.1v-0.1c0-0.1,0.2-0.1,0.3-0.2c0.2,0,0.3-0.1,0.3-0.2c0-0.2-0.2-0.2-0.5-0.4
				C9.3,10.5,8.9,10.5,8.5,10.3 M9.2,17.2v-3c0-0.2,0-0.2,0.2-0.2c0.2-0.1,0.2-0.2,0.2-0.2s-0.2-0.2-0.3-0.2s-0.2-0.1-0.2-0.1
				C9.3,13,9.5,12.6,9.6,12l0,0c0.4,0,0.8-0.1,1.2-0.1h0.1l-1.4,3.3c0,0.1,0.1,0.2,0.2,0.2c0.2,0.1,0.3,0.1,0.4,0.1
				c0.2,0,0.2,0,0.4,0c0.1,0,0.2-0.1,0.2-0.2l0.1-0.2h0.5c-0.1,1-0.2,1.9-0.4,2.7c-0.1-0.3-0.2-0.6-0.2-1s-0.2-0.5-0.4-0.5
				s-0.3,0.2-0.5,0.4C9.6,16.7,9.3,17,9.2,17.2 M12.7,11.6l0.2,0.5c0.2,0,0.5,0,0.9,0v0.2v0.9h-0.6c-0.3,0-0.7,0-1.3-0.1l0.2,0.5
				c0.4,0,0.8-0.1,1.1-0.1h0.6v1.2c-0.4,0-0.7,0-1-0.1l0.2,0.5c0.2,0,0.5,0,0.9-0.1v1.2c-0.5,0-1,0-1.3-0.1l0.2,0.5
				c0.2,0,0.6,0,1.2-0.1V17c0,0.2,0,0.4,0,0.6h-0.2c-0.7,0-1.2,0-1.6-0.1l0.2,0.5c0.3,0,0.8-0.1,1.5-0.1h0.2c0,0.3,0,0.6,0,0.9
				c0,0.2,0.1,0.3,0.3,0.3c0.1,0,0.2,0,0.4,0c0.4-0.1,0.5-0.2,0.5-0.3c0-0.3,0-0.6,0-0.9h2.6c0.2,0,0.2-0.1,0.2-0.2
				s-0.2-0.2-0.5-0.5s-0.5-0.5-0.6-0.5s-0.2,0.2-0.5,0.5c-0.2,0.2-0.3,0.4-0.4,0.4h-0.7c0-0.2,0-0.4,0-0.6v-0.5H17
				c0.2,0,0.2-0.1,0.2-0.2s-0.2-0.2-0.4-0.5c-0.3-0.3-0.5-0.5-0.6-0.5s-0.2,0.2-0.5,0.5c-0.2,0.2-0.3,0.4-0.3,0.4h-0.5V15h0.7
				c0,0.2,0.1,0.3,0.3,0.3c0.1,0,0.2,0,0.3,0c0.3-0.1,0.5-0.2,0.5-0.3s0-0.2,0-0.4s0-0.5,0-1.1h1c0.1,0,0.2-0.1,0.2-0.2
				c0-0.2-0.1-0.3-0.3-0.5c-0.2-0.2-0.2-0.2-0.3-0.2s-0.2,0.1-0.3,0.3c-0.1,0.2-0.2,0.3-0.2,0.4h-0.1v-0.9c0-0.1,0.1-0.2,0.2-0.3
				c0.2-0.1,0.2-0.2,0.2-0.2c0-0.1-0.2-0.2-0.5-0.5s-0.5-0.3-0.5-0.3s-0.2,0.1-0.3,0.3s-0.2,0.2-0.3,0.4H15v-0.4
				c0-0.2,0.1-0.2,0.2-0.3c0.2-0.1,0.3-0.2,0.3-0.3s-0.2-0.2-0.5-0.2c-0.5-0.1-0.9-0.2-1.2-0.2c0.1,0.4,0.1,0.9,0.2,1.3
				C13.3,11.7,13,11.6,12.7,11.6 M14.9,12h0.7v1.1h-0.7V12z M14.9,13.4h0.7v1.2h-0.7V13.4z M18.9,11.6l0.2,0.5
				C19.5,12,20,12,20.6,12h1.2v0.3c0,0.2,0,0.3,0,0.5S22,13,22.2,13c0.1,0,0.2,0,0.4,0c0.4-0.1,0.6-0.2,0.6-0.3v-0.6h2.2v0.3
				c0,0.2,0,0.3-0.1,0.5c0,0.2,0.2,0.2,0.4,0.2c0.1,0,0.2,0,0.4,0c0.4-0.1,0.6-0.2,0.6-0.3v-0.6h3c0.2,0,0.2-0.1,0.2-0.2
				c0-0.1-0.2-0.2-0.5-0.6c-0.3-0.3-0.5-0.5-0.7-0.5c-0.1,0-0.2,0.2-0.5,0.5C28,11.9,27.9,12,27.9,12h-1.1v-0.3
				c0-0.2,0.1-0.2,0.2-0.3c0.2-0.1,0.4-0.2,0.4-0.3s-0.2-0.2-0.7-0.2c-0.5-0.1-0.9-0.2-1.3-0.2c0.1,0.3,0.1,0.6,0.1,1v0.4h-2.2v-0.3
				c0-0.2,0.1-0.2,0.2-0.3c0.2-0.1,0.4-0.2,0.4-0.3S23.7,11,23.2,11c-0.5-0.1-0.9-0.2-1.3-0.2c0.1,0.3,0.1,0.6,0.1,1v0.3h-1
				C20.2,11.7,19.6,11.6,18.9,11.6 M19.5,13.2l0.2,0.5c0.3,0,0.7-0.1,1.4-0.1v1.6h-0.6c-0.7,0-1.2,0-1.6-0.1l0.2,0.5
				c0.3,0,0.8-0.1,1.4-0.1h0.6V17c-0.7,0-1.2,0-1.6-0.1l0.2,0.5c0.3,0,0.8-0.1,1.4-0.1h2.6v1.3h-1.9c-0.7,0-1.2,0-1.6-0.1l0.2,0.5
				c0.3,0,0.8-0.1,1.5-0.1h1.9c0,0.7-0.1,1.3-0.1,1.7c0,0.2,0.2,0.4,0.4,0.4c0.1,0,0.2,0,0.4,0c0.4-0.1,0.6-0.2,0.6-0.3V19h3.5
				c0.2,0,0.2-0.1,0.2-0.2s-0.2-0.3-0.5-0.6c-0.3-0.3-0.5-0.5-0.7-0.5c-0.1,0-0.2,0.2-0.5,0.5c-0.2,0.3-0.4,0.5-0.4,0.5H25v-1.3h4
				c0.2,0,0.2-0.1,0.2-0.2S29,17,28.8,16.7c-0.3-0.3-0.5-0.5-0.6-0.5s-0.2,0.2-0.5,0.5c-0.1,0.2-0.2,0.2-0.2,0.3v-1.5h2
				c0.2,0,0.2-0.1,0.2-0.2s-0.2-0.2-0.5-0.5s-0.5-0.5-0.6-0.5s-0.2,0.2-0.5,0.5c-0.2,0.2-0.3,0.4-0.4,0.4h-0.3v-1.6h1.4
				c0.2,0,0.2-0.1,0.2-0.2c0-0.1-0.2-0.2-0.5-0.5s-0.5-0.5-0.7-0.5c-0.1,0-0.2,0.2-0.5,0.5c-0.2,0.3-0.3,0.4-0.4,0.4h-6.2
				C20.4,13.3,19.8,13.3,19.5,13.2 M26.3,17.1H25v-1.6h1.3V17.1z M23.7,17.1h-1.3v-1.6h1.3V17.1z M26.3,15.1H25v-1.6h1.3V15.1z
				 M23.7,15.1h-1.3v-1.6h1.3V15.1z"/>
			<path class="st1" d="M7.5,22.9l0.2,0.5c0.3,0,0.8-0.1,1.4-0.1h2.3c0.2,0,0.2-0.1,0.2-0.2s-0.2-0.2-0.4-0.5
				c-0.3-0.3-0.5-0.5-0.6-0.5s-0.2,0.2-0.5,0.5C9.8,22.9,9.7,23,9.7,23H8.9C8.4,23.1,7.8,23,7.5,22.9 M6.9,24.6L7.1,25
				c0.3,0,0.7,0,1.4,0h3.3c0.2,0,0.2-0.1,0.2-0.2s-0.2-0.2-0.5-0.6c-0.3-0.3-0.5-0.5-0.7-0.5c-0.1,0-0.2,0.2-0.5,0.5
				c-0.2,0.3-0.4,0.5-0.4,0.5H8.5C7.8,24.7,7.3,24.7,6.9,24.6 M7.5,26.1l0.2,0.5c0.3,0,0.8-0.1,1.4-0.1h2.2c0.2,0,0.2-0.1,0.2-0.2
				s-0.2-0.2-0.4-0.5c-0.3-0.3-0.5-0.5-0.6-0.5s-0.2,0.2-0.5,0.5c-0.2,0.2-0.3,0.4-0.3,0.4H9C8.4,26.1,7.8,26.1,7.5,26.1 M7.5,27.7
				l0.2,0.5c0.3,0,0.8,0,1.4,0h2.3c0.2,0,0.2-0.1,0.2-0.2s-0.2-0.2-0.5-0.5S10.6,27,10.5,27s-0.2,0.2-0.5,0.5
				c-0.2,0.2-0.3,0.4-0.4,0.4H8.9C8.4,27.8,7.8,27.8,7.5,27.7 M7.5,28.9c0.1,0.4,0.1,0.7,0.1,0.9v2.1c0,0.2,0,0.5-0.1,0.7
				c0,0.2,0.2,0.3,0.4,0.3c0.1,0,0.2,0,0.4-0.1c0.4-0.1,0.5-0.2,0.5-0.3v-0.6H10v0.5c0,0.2,0.1,0.4,0.3,0.4c0.1,0,0.2,0,0.4,0
				c0.4-0.1,0.6-0.2,0.6-0.3c0-0.6-0.1-1.1-0.1-1.5v-0.8c0-0.2,0.1-0.2,0.2-0.3c0.2-0.1,0.2-0.2,0.2-0.3S11.3,29.2,11,29
				c-0.4-0.2-0.5-0.3-0.6-0.3s-0.2,0.1-0.3,0.2c-0.2,0.2-0.3,0.3-0.5,0.5H8.9C8.4,29.2,7.9,29,7.5,28.9 M8.8,29.7H10v2H8.8V29.7z
				 M11.7,26.2l0.2,0.5c0.3,0,0.8,0,1.5,0h0.5v3.8c0,0.7,0,1.4-0.1,2.2c0,0.2,0.2,0.4,0.4,0.4c0.1,0,0.2,0,0.4,0
				c0.5-0.1,0.6-0.2,0.6-0.3c0-0.7-0.1-1.5-0.1-2.2v-3.8h2.3c0.2,0,0.2-0.1,0.2-0.2s-0.2-0.3-0.5-0.7c-0.4-0.4-0.6-0.5-0.8-0.5
				c-0.1,0-0.2,0.2-0.5,0.6c-0.2,0.3-0.4,0.5-0.4,0.5h-0.3v-3c0-0.2,0.1-0.2,0.2-0.3c0.2-0.1,0.4-0.2,0.4-0.3c0-0.2-0.2-0.2-0.6-0.2
				c-0.6-0.1-1.1-0.2-1.5-0.2c0.1,0.6,0.2,1.4,0.2,2.3v1.9h-0.5C12.6,26.3,12,26.3,11.7,26.2 M23.4,22.6c0,0.5,0.1,1,0.1,1.6
				c0,1.4-0.2,2.6-0.5,3.6c-0.4,1.2-0.9,2-1.4,2.7c-0.6,0.9-1.4,1.6-2.3,2.1l0.1,0.2c1.2-0.5,2.1-1.1,2.7-1.7
				c0.8-0.7,1.4-1.5,1.9-2.5c0.4-0.8,0.6-2,0.9-3.7c0,0.7,0.1,1.4,0.2,2c0.2,0.9,0.4,1.7,0.8,2.6s0.9,1.6,1.6,2.3
				c0.5,0.5,0.9,0.9,1.1,0.9c0.1,0,0.2-0.2,0.4-0.5c0.2-0.3,0.5-0.5,0.9-0.6l0.1-0.3c-0.9-0.5-1.6-0.9-2.1-1.3s-0.9-0.9-1.3-1.6
				c-0.4-0.6-0.8-1.3-1-2c-0.2-0.8-0.4-1.8-0.4-3c0.1,0,0.2-0.1,0.2-0.2c0.2-0.1,0.3-0.2,0.3-0.3c0-0.2-0.3-0.2-0.9-0.3
				C24.2,22.7,23.8,22.6,23.4,22.6"/>
			<path class="st1" d="M7.6,35l0.2,0.5c0.3,0,0.9-0.1,1.7-0.1h0.2V36H8.5c-0.7,0-1.2,0-1.6-0.1L7,36.4c0.3,0,0.8-0.1,1.4-0.1h1.2
				V37H8.9c-0.6,0-1.1,0-1.6-0.1l0.2,0.5c0.3,0,0.8-0.1,1.3-0.1h0.6V38H8.8c-0.7,0-1.2,0-1.6-0.1l0.2,0.5c0.3,0,0.8,0,1.4,0h0.7V39
				H8.2c-0.7,0-1.2,0-1.6-0.1l0.2,0.5c0.3,0,0.8-0.1,1.4-0.1h5.5c0.1,0,0.2-0.1,0.2-0.2s-0.1-0.2-0.3-0.4s-0.3-0.3-0.4-0.3
				c0,0-0.2,0.1-0.3,0.3c-0.2,0.2-0.2,0.2-0.2,0.2h-1.9v-0.6h2.5c0.1,0,0.2-0.1,0.2-0.2s-0.1-0.2-0.3-0.4s-0.4-0.3-0.5-0.3
				s-0.2,0.1-0.3,0.3c-0.2,0.2-0.2,0.3-0.2,0.3H11v-0.7h0.9c0,0.2,0.1,0.2,0.2,0.2c0.1,0,0.2,0,0.3,0c0.3-0.1,0.5-0.2,0.5-0.3V37
				c0-0.1-0.1-0.3-0.1-0.6h1.1c0.1,0,0.1-0.1,0.1-0.2c0,0-0.1-0.2-0.3-0.3c-0.2-0.2-0.3-0.2-0.4-0.2c0,0-0.2,0.1-0.2,0.2
				c-0.2,0.2-0.2,0.2-0.2,0.2h-0.1V36c0-0.1,0.1-0.2,0.2-0.3c0.2-0.1,0.2-0.2,0.2-0.2S13,35.3,12.7,35c-0.3-0.2-0.5-0.4-0.5-0.4
				s-0.2,0.1-0.4,0.2c-0.1,0.1-0.2,0.2-0.3,0.3h-0.6V35c0-0.2,0.1-0.2,0.3-0.3s0.2-0.2,0.2-0.2c0-0.2-0.2-0.2-0.5-0.2
				c-0.5-0.1-0.9-0.2-1.5-0.2c0.1,0.3,0.1,0.7,0.1,1l0,0h0.2C8.8,35.1,8.1,35.1,7.6,35 M11,35.4h0.9V36H11V35.4z M11,36.4h0.9v0.7
				H11V36.4z M7.6,39.5c0.1,0.5,0.1,1,0.1,1.6v0.3c0,0.4,0,0.7-0.1,1.1c0,0.2,0.2,0.4,0.4,0.4c0.1,0,0.2,0,0.4,0
				c0.3-0.1,0.5-0.2,0.5-0.3h3.2c0,0.2,0.1,0.3,0.3,0.3c0.1,0,0.2,0,0.4,0c0.4-0.1,0.5-0.2,0.5-0.3c0-0.5,0-1,0-1.3v-0.2
				c0-0.2,0.1-0.2,0.2-0.3c0.2-0.1,0.2-0.2,0.2-0.3s-0.2-0.2-0.5-0.5c-0.3-0.2-0.5-0.3-0.6-0.3s-0.2,0.1-0.3,0.2
				c-0.2,0.2-0.3,0.2-0.5,0.4H9C8.6,39.9,8.2,39.7,7.6,39.5 M8.9,41.5h1v0.8h-1V41.5z M11.1,41.5h1v0.8h-1V41.5z M8.9,40.5h1v0.7h-1
				V40.5z M11.1,40.5h1v0.7h-1V40.5z M13.8,43c-2,0.2-4.3,0.3-6.7,0.4c0.2,0.3,0.2,0.5,0.3,0.7c0.2,0.5,0.4,0.8,0.5,0.8
				C8,44.9,8,44.8,8,44.7c0-0.1,0-0.2,0-0.2c0-0.1,0.1-0.1,0.3-0.1c1.9-0.3,3.7-0.7,5.5-1.3C13.8,43.2,13.8,43,13.8,43z M14.2,35
				c0.1,0.5,0.2,1.2,0.2,1.9V40c0,0.6,0,1.2-0.1,1.9c0,0.2,0.1,0.3,0.3,0.3c0.1,0,0.2,0,0.4,0c0.4-0.1,0.5-0.2,0.5-0.3
				c0-0.6-0.1-1.2-0.1-1.9v-4.1c0-0.2,0.1-0.2,0.2-0.3c0.2-0.1,0.3-0.2,0.3-0.3s-0.2-0.2-0.5-0.2C14.9,35.1,14.5,35,14.2,35
				 M15.9,34.1c0.1,0.5,0.2,1.1,0.2,1.8v7c0,0.2-0.1,0.2-0.2,0.3c-0.2,0.1-0.3,0.1-0.5,0.1s-0.6,0-1-0.1l-0.1,0.2
				c0.8,0.3,1.2,0.6,1.3,1.1c0.1,0.2,0.2,0.4,0.2,0.4c0.2,0,0.5-0.2,0.9-0.3c0.3-0.2,0.5-0.7,0.5-1.4v-8.1c0-0.2,0.1-0.2,0.2-0.2
				c0.2-0.1,0.3-0.2,0.3-0.3s-0.3-0.2-0.9-0.2C16.6,34.2,16.3,34.2,15.9,34.1 M20.8,34.2c-0.2,1.2-0.5,2.3-0.7,3.2
				c-0.3,0.9-0.7,1.7-1.2,2.7l0.2,0.2c0.4-0.4,0.7-0.9,1-1.2v3c0,0.9,0,1.7-0.1,2.6c0,0.2,0.2,0.4,0.4,0.4c0.1,0,0.2,0,0.4,0
				c0.4-0.1,0.5-0.2,0.5-0.3v-6.5c0-0.2,0.1-0.2,0.2-0.3c0.2-0.1,0.2-0.2,0.2-0.3s-0.2-0.2-0.4-0.2c-0.1,0-0.1,0-0.2-0.1
				c0.2-0.5,0.5-1.2,0.7-1.9c0-0.1,0.2-0.1,0.3-0.2c0.2,0,0.3-0.2,0.3-0.2s-0.2-0.2-0.5-0.4C21.6,34.5,21.2,34.3,20.8,34.2
				 M22.6,34.4c0.1,0.5,0.1,1.1,0.1,1.7v1.1c0,0.4,0,0.9-0.1,1.2c0,0.2,0.2,0.4,0.4,0.4c0.1,0,0.2,0,0.4,0c0.4-0.1,0.6-0.2,0.6-0.3
				v-0.3h0.9v1.7h-1.8c-0.7,0-1.2,0-1.6-0.1l0.2,0.5c0.3,0,0.8-0.1,1.4-0.1h1.1c-0.3,0.9-0.8,1.6-1.2,2.3c-0.5,0.6-1.1,1.2-1.6,1.6
				l0.1,0.2c0.5-0.2,1.1-0.5,1.6-0.9c0.5-0.3,0.9-0.7,1.3-1.2c0.2-0.2,0.3-0.5,0.5-0.8v1.2c0,0.9,0,1.5-0.1,1.9
				c0,0.2,0.2,0.4,0.4,0.4c0.1,0,0.2,0,0.4,0c0.4-0.1,0.6-0.2,0.6-0.3V41c0.2,0.4,0.4,0.8,0.6,1.2c0.4,0.6,0.8,1.1,1.2,1.5
				s0.6,0.5,0.8,0.5s0.2-0.2,0.3-0.4c0.2-0.4,0.4-0.6,0.8-0.7l0.1-0.3c-0.6-0.2-1.2-0.4-1.9-0.9c-0.5-0.4-1.1-0.9-1.6-1.6h3.2
				c0.2,0,0.2-0.1,0.2-0.2s-0.2-0.3-0.5-0.7s-0.6-0.5-0.8-0.5c-0.1,0-0.2,0.2-0.5,0.5c-0.2,0.3-0.4,0.5-0.4,0.5h-1.3v-1.7h1v0.2
				c0,0.2,0.1,0.4,0.3,0.4c0.1,0,0.2,0,0.4,0c0.4-0.1,0.6-0.2,0.6-0.3c0-0.6-0.1-1.2-0.1-1.6v-1.1c0-0.2,0.1-0.2,0.2-0.4
				c0.2-0.1,0.2-0.2,0.2-0.3s-0.2-0.3-0.6-0.5s-0.6-0.3-0.7-0.3s-0.2,0.1-0.3,0.2c-0.2,0.2-0.3,0.3-0.5,0.5h-2.6
				C23.7,34.7,23.1,34.5,22.6,34.4 M24,35.3h3.3v2.5H24C24,37.7,24,35.3,24,35.3z"/>
		</g>
	</g>
</g>
</svg>
