<?xml version="1.0" encoding="utf-8"?>
<!-- Generator: Adobe Illustrator 21.0.2, SVG Export Plug-In . SVG Version: 6.00 Build 0)  -->
<svg version="1.1" id="Layer_1" xmlns="http://www.w3.org/2000/svg" xmlns:xlink="http://www.w3.org/1999/xlink" x="0px" y="0px"
	 viewBox="0 0 90 58" style="enable-background:new 0 0 90 58;" xml:space="preserve">
<style type="text/css">
	.st0{fill:#FFFFFF;}
	.st1{fill:#007F7B;}
	.st2{fill:#60504D;}
</style>
<g>
	<polyline class="st0" points="7.3,23.6 7.3,33.5 10,33.5 10,29.7 13.1,29.7 13.1,33.5 15.6,33.5 15.9,33.4 15.9,23.5 13.1,23.5 
		13.1,27.4 10,27.4 10,23.5 7.5,23.5 7.3,23.6 	"/>
	<path class="st0" d="M20.8,22.6c0-0.5-0.4-0.9-1-0.9c-0.5,0-0.9,0.4-1,0.5l0.1-0.5h-1l-0.8,3.5h1l0.2-1c0.1-0.5,0.4-1.7,1-1.7
		c0.2,0,0.4,0.1,0.4,0.4c0,0.2-0.1,0.4-0.1,0.7l-0.4,1.6h1l0.4-1.6C20.7,23.3,20.8,22.9,20.8,22.6"/>
	<path class="st1" d="M15.6,33.5c-2.6,1.7-5.3,2.6-7.6,2.6c-3.6,0-5.2-2-5.2-4.4c0-2.5,1.6-5.6,4.5-8.2v10H10v-3.9h3.1v3.9H15.6
		 M20.8,22.6c0-0.5-0.4-0.9-1-0.9c-0.5,0-0.9,0.4-1,0.5l0.1-0.5h-1l-0.8,3.5h1l0.2-1c0.1-0.5,0.4-1.7,1-1.7c0.2,0,0.4,0.1,0.4,0.4
		c0,0.2-0.1,0.4-0.1,0.7l-0.4,1.6h1l0.4-1.6C20.7,23.3,20.8,22.9,20.8,22.6z M22.6,23.5c0,2.9-2.3,6.7-6,9.4
		c-0.2,0.2-0.5,0.4-0.7,0.5v-10h-2.7v3.9H10v-3.9H7.4c0.4-0.4,0.9-0.7,1.3-1.1c2.9-2.1,6-3.3,8.6-3.3C21.3,19.1,22.6,21.4,22.6,23.5
		z"/>
	<polyline class="st2" points="31.9,23.6 31.9,27.9 28.2,27.9 28.2,23.6 26.6,23.6 26.6,33.8 28.2,33.8 28.2,29.1 31.9,29.1 
		31.9,33.8 33.4,33.8 33.4,23.6 31.9,23.6 	"/>
	<path class="st2" d="M38.1,27.8c1.3,0,1.6,1.3,1.6,2l0,0c-0.1,0-3.1,0-3.2,0C36.4,29.1,36.8,27.8,38.1,27.8 M35,30.2
		c0,2.1,1.2,3.7,3.8,3.7c0.9,0,1.5-0.2,1.9-0.3c0,0,0-0.9,0-1.2c-0.4,0.1-1,0.3-1.7,0.3c-1.8,0-2.4-1.2-2.5-2c0.1,0,4.5,0,4.5,0
		c0.1-0.2,0.1-0.8,0.1-1c0-1.8-1.2-3.1-3-3.1C36.4,26.6,35,27.9,35,30.2z"/>
	<path class="st2" d="M79.2,27.8c1.3,0,1.6,1.3,1.6,2l0,0c-0.1,0-3.1,0-3.2,0C77.6,29.1,77.9,27.8,79.2,27.8 M76.1,30.2
		c0,2.1,1.2,3.7,3.8,3.7c0.9,0,1.5-0.2,1.9-0.3c0,0,0-0.9,0-1.2c-0.4,0.1-1,0.3-1.7,0.3c-1.8,0-2.4-1.2-2.5-2c0.1,0,4.5,0,4.5,0
		c0.1-0.2,0.1-0.8,0.1-1c0-1.8-1.2-3.1-3-3.1C77.6,26.6,76.1,27.9,76.1,30.2z"/>
	<path class="st2" d="M43.6,31.8c0-0.9,0.8-1.5,2.9-1.5c0,0.1,0,2.4,0,2.4c-0.2,0.1-0.7,0.1-1.2,0.1C43.6,32.9,43.6,32,43.6,31.8
		 M42.8,27.3c0,0.2,0,0.9,0,1.2c0.4-0.3,1.3-0.7,2.3-0.7c1.4,0,1.3,0.9,1.3,1.3c0,0,0,0.2,0,0.2c-2.7,0-4.3,0.9-4.3,2.4
		c0,1.2,0.9,2.1,3.1,2.1c1,0,2.3-0.2,2.6-0.3c0-0.7,0-4.8,0-4.8c0-1-0.4-2.3-2.6-2.3C44.2,26.6,43.3,27,42.8,27.3z"/>
	<polyline class="st2" points="51.3,23.6 49.9,23.6 49.9,33.8 51.4,33.8 51.4,23.6 51.3,23.6 	"/>
	<path class="st2" d="M83.7,25.6v5.9c0,1.6,0.6,2.4,2.3,2.4c0.5,0,1.1-0.1,1.2-0.1c0-0.1,0-0.9,0-1.2c-0.3,0.1-0.7,0.1-1,0.1l0,0
		c-0.9,0-1.1-0.5-1.1-1.2c0-0.7,0-3.4,0-3.5c0.1,0,2,0,2,0v-1.2c0,0-1.8,0-2,0c0-0.1,0-2.1,0-2.1L83.7,25.6"/>
	<path class="st2" d="M53.3,25.6v5.9c0,1.6,0.6,2.4,2.3,2.4c0.5,0,1.1-0.1,1.2-0.1c0-0.1,0-0.9,0-1.2c-0.3,0.1-0.7,0.1-1,0.1l0,0
		c-0.9,0-1.1-0.5-1.1-1.2c0-0.7,0-3.4,0-3.5c0.1,0,2,0,2,0v-1.2c0,0-1.8,0-2,0c0-0.1,0-2.1,0-2.1L53.3,25.6"/>
	<polyline class="st2" points="73.1,23.6 73.1,31.5 69.7,23.6 67.8,23.6 67.8,33.8 69.3,33.8 69.3,26 72.7,33.8 74.6,33.8 
		74.6,23.6 73.1,23.6 	"/>
	<path class="st2" d="M58.2,23.6v10.2h1.5v-4.2c0-1.1,0.8-1.6,1.5-1.6c0.8,0,1.5,0.5,1.5,1.6v4.2h1.5v-4.3c0-1.5-1-2.8-2.6-2.8
		c-1,0-1.7,0.6-1.9,0.8c0-0.4,0-3.8,0-3.8L58.2,23.6"/>
</g>
</svg>
