<?xml version="1.0" encoding="utf-8"?>
<!-- Generator: Adobe Illustrator 21.0.2, SVG Export Plug-In . SVG Version: 6.00 Build 0)  -->
<svg version="1.1" id="Layer_1" xmlns="http://www.w3.org/2000/svg" xmlns:xlink="http://www.w3.org/1999/xlink" x="0px" y="0px"
	 viewBox="0 0 90 58" style="enable-background:new 0 0 90 58;" xml:space="preserve">
<style type="text/css">
	.st0{fill:#0078A8;}
	.st1{font-family:'ArialMT';}
	.st2{font-size:4.4969px;}
</style>
<g>
	<path class="st0" d="M17.4,23.4c-0.3-0.2-0.5-0.4-0.8-0.5l-0.5,9.6l2.4-6.7C18.7,24.9,18.2,24,17.4,23.4"/>
	<path class="st0" d="M13.5,22.8l1.4,9.6l1.3-9.6C15.4,22.5,14.4,22.4,13.5,22.8"/>
	<path class="st0" d="M12.3,23.4c-0.8,0.6-1.3,1.5-1.1,2.5l2.4,6.7L13.1,23C12.8,23,12.5,23.2,12.3,23.4"/>
	<path class="st0" d="M7.4,24.3c1.6,2.8,3.2,5.8,4.8,8.5c-0.6-2.4-1.1-6.3-1.9-7.4C9.4,24.1,7.4,24.3,7.4,24.3"/>
	<path class="st0" d="M4.6,25.7l6.5,7.6l-4-8.9C6.1,24.3,5.2,24.9,4.6,25.7"/>
	<path class="st0" d="M18.3,27.8L17.2,33c1.4-2.4,2.7-4.8,4.1-7.3C20.1,25.8,18.7,26.3,18.3,27.8"/>
	<path class="st0" d="M21.8,25.7l-3.5,7.7l6-6.6C23.7,26,22.8,25.7,21.8,25.7"/>
	<path class="st0" d="M3.8,29.1c2.1,1.7,4.2,3.3,6.4,4.9l-5.8-8.1C3.9,26.8,3.7,27.9,3.8,29.1"/>
	<path class="st0" d="M25.1,27.7c-0.1-0.3-0.3-0.5-0.5-0.7l-5.2,7.2c2.1-1.6,4.1-3.2,6.1-4.7C25.5,28.9,25.4,28.2,25.1,27.7"/>
	<path class="st0" d="M3.8,32.4L9.3,35c-1.9-1.9-3.7-3.7-5.6-5.4L3.8,32.4"/>
	<path class="st0" d="M25.5,32.6V30l-5.3,5.1C22,34.3,23.6,33.5,25.5,32.6"/>
	<path class="st0" d="M3.8,35c1.7,0.4,3.5,0.8,5,1.1l-5-3.3L3.8,35"/>
	<path class="st0" d="M25.5,35.1v-2c-1.6,1-3.2,2.1-4.7,3.1L25.5,35.1"/>
	<polyline class="st0" points="3.8,37.5 8.7,37.5 3.8,35.4 3.8,37.5 	"/>
	<path class="st0" d="M25.5,37.5v-1.9c-1.6,0.7-3,1.3-4.6,1.9H25.5"/>
	<path class="st0" d="M23.8,23.1L23.8,23.1L23.8,23.1L23.8,23.1"/>
	<path class="st0" d="M23.8,23.1c0.1-3-4.2-3-4.2,0C19.5,25.8,23.9,26,23.8,23.1"/>
	<path class="st0" d="M9.8,21.6c0.1-3-4.4-2.8-4.2,0C5.3,24.6,10.1,24.6,9.8,21.6"/>
	<path class="st0" d="M14.9,22.2c1.7,0.1,2.4-1.2,2.4-2.4c0-1.8-1.1-2.6-2.4-2.6s-2.4,0.8-2.4,2.6C12.5,20.8,13,22.1,14.9,22.2"/>
	<polyline class="st0" points="40.1,28.8 41.1,28.8 41.1,22.2 40.1,22.2 40.1,28.8 	"/>
	<path class="st0" d="M36,22.2l-1.9,5.6l-1.9-2.4l2.5-3.2h-1.3l-2.3,3.2v-3.2H30v6.6h1.1v-3.3l2.4,3.3h0.3l0,0h1.1l0.6-1.9h2.4
		l0.6,1.9h1.2l-2.2-6.7L36,22.2 M35.8,26l0.9-2.7l0,0l0.9,2.7H35.8z"/>
	<path class="st0" d="M47.9,36.3l-1.1-4.8h-2v6.6c0.6,0,1.1,0,1.1,0v-5.7l1.5,5.7c0,0,0.5,0,1.1,0l1.4-5.7v5.7H51v-6.6h-2L47.9,36.3
		"/>
	<path class="st0" d="M53.9,31.6l-2.3,6.6h1.1l0.6-1.9h2.4l0.6,1.9h1.2l-2.3-6.6H53.9 M53.6,35.3l0.9-2.7l0,0l0.9,2.7H53.6z"/>
	<path class="st0" d="M62.2,36.6l-2.6-5.1h-1.5v6.6c0.5,0,1.1,0,1.1,0v-5l2.6,5h1.6v-6.6h-1.1L62.2,36.6"/>
	<path class="st0" d="M83.9,37.2h-2.7v-1.9h2v-1h-2v-1.9c0.3,0,2.5,0,2.5,0v-1c-0.6,0-3.6,0-3.6,0V38h3.8L83.9,37.2"/>
	<path class="st0" d="M73.5,31.6L73.5,31.6h-0.2v5.1l-2.6-5.1h-1.5v5.7h-3.5v-1.9h2v-1h-2v-1.9c0.3,0,2.5,0,2.5,0v-1
		c-0.6,0-3.6,0-3.6,0v6.6h5.6c0.1,0,0.1,0,0.1,0V33l2.6,5h1.6v-5.7c0.7,0,1.4,0,2,0v5.6h1.1v-5.6h1.9v-1L73.5,31.6"/>
	<path class="st0" d="M43.2,34.8c0.4-0.3,0.6-0.8,0.6-1.4s-0.3-1.1-0.6-1.4c-0.4-0.3-1-0.5-1.9-0.5h-1.9v2.7l0,0V37h-3.5v-1.9h2
		v-0.9h-2v-1.9c0.3,0,2.5,0,2.5,0v-1c-0.6,0-3.6,0-3.6,0v6.6h5.8v-2.8h0.6c0.5,0.8,1.7,2.8,1.7,2.8h1.3L42.4,35
		C42.7,35.1,42.9,35,43.2,34.8 M40.5,34.3v-1.8h1c0.8,0,1.2,0.3,1.2,0.9c0,0.6-0.3,1-1.2,1L40.5,34.3L40.5,34.3z"/>
	<path class="st0" d="M55.4,25.4c0.4-0.3,0.6-0.8,0.6-1.4s-0.3-1.1-0.6-1.4c-0.4-0.3-1-0.5-1.9-0.5h-1.9v2.7l0,0v2.8h-3.5v-1.9h2v-1
		h-2v-1.9c0.3,0,2.5,0,2.5,0v-1c-0.6,0-3.6,0-3.6,0v6.6h5.8v-2.8h0.6c0.5,0.8,1.6,2.8,1.6,2.8h1.3l-1.8-2.9
		C54.9,25.8,55.2,25.6,55.4,25.4 M52.7,24.9v-1.8h1c0.8,0,1.2,0.3,1.2,0.9s-0.3,1-1.2,1L52.7,24.9L52.7,24.9z"/>
	<path class="st0" d="M33.3,32.1c-0.4-0.3-1-0.5-1.9-0.5h-1.9v3.9l0,0v2.7h1.1v-2.7h0.8c1,0,1.5-0.2,1.9-0.5
		c0.4-0.3,0.6-0.8,0.6-1.4C34,32.8,33.7,32.3,33.3,32.1 M31.7,34.4h-1v-1.9h1c0.8,0,1.2,0.4,1.2,1S32.4,34.4,31.7,34.4z"/>
	<path class="st0" d="M44.5,24.9c-0.9-0.3-1.3-0.6-1.3-1.1c0-0.4,0.4-0.8,1.2-0.8c0.6,0,1.1,0.2,1.4,0.3v-1C45.5,22.2,45,22,44.4,22
		C43,22,42,22.8,42,23.9c0,1,0.7,1.6,1.9,1.9c0.8,0.3,1.2,0.6,1.2,1.1c0,0.6-0.5,1-1.3,1c-0.6,0-1.4-0.2-1.8-0.5v1
		c0.4,0.2,1.1,0.4,1.7,0.4c1.7,0,2.5-0.9,2.5-2C46.2,25.9,45.7,25.4,44.5,24.9"/>
	<text transform="matrix(1 0 0 1 84.9749 38.1176)" class="st0 st1 st2">®</text>
</g>
</svg>
