<?xml version="1.0" encoding="utf-8"?>
<!-- Generator: Adobe Illustrator 21.0.2, SVG Export Plug-In . SVG Version: 6.00 Build 0)  -->
<svg version="1.1" id="Layer_1" xmlns="http://www.w3.org/2000/svg" xmlns:xlink="http://www.w3.org/1999/xlink" x="0px" y="0px"
	 viewBox="0 0 90 58" style="enable-background:new 0 0 90 58;" xml:space="preserve">
<style type="text/css">
	.st0{fill:#FFC65A;}
	.st1{fill:#00558E;}
	.st2{fill:#00548E;}
</style>
<g>
	<polygon id="XMLID_83_" class="st0" points="88.6,8.1 88.6,5 1.7,5 1.7,8.1 	"/>
	<path id="XMLID_78_" class="st1" d="M85.7,31.4c0-0.6,0.5-1.1,1.1-1.1c0.6,0,1.1,0.5,1.1,1.1c0,0.6-0.5,1.2-1.1,1.2
		C86.1,32.6,85.7,32.1,85.7,31.4z M86.8,32.8c0.7,0,1.4-0.5,1.4-1.4s-0.6-1.4-1.4-1.4s-1.4,0.5-1.4,1.4
		C85.3,32.2,85.9,32.8,86.8,32.8z M86.5,31.6h0.3l0.5,0.7h0.3L87,31.6c0.3,0,0.4-0.2,0.4-0.5c0-0.3-0.2-0.5-0.5-0.5h-0.6v1.5h0.3
		L86.5,31.6L86.5,31.6z M86.5,31.3v-0.5h0.4c0.2,0,0.4,0,0.4,0.3c0,0.3-0.2,0.3-0.4,0.3L86.5,31.3L86.5,31.3z"/>
	<g id="XMLID_70_">
		<path id="XMLID_77_" class="st1" d="M85.9,21.4L85.9,21.4L85.9,21.4L85.9,21.4z"/>
		<path id="XMLID_71_" class="st1" d="M83.3,10.2h-4.2h-8.4v0.4l1.3,0.1c1.8,0,2.7,1.3,2.7,3.3v8.2l0,0v8.7c0,0-0.3-0.1-0.5-0.4
			c-0.5-0.4-2.5-2.7-3.6-5.4c-1.1-2.6-2.1-3.2-3.2-3.4c-0.8-0.2-1-0.2,0-0.3c0.1,0,0.3,0,0.4-0.1c4.6-0.9,4.9-11.1-1.6-11.2h-5h-8.5
			v0.5h1.2c1.5,0,2.5,1.2,2.6,3v7.8v10l-0.5-0.4l-3.5-7.8l-6-13.1h-0.8L41,21.1L40,23.2l0,0l-3.2,7.5l-0.3,0.2v-9.4l0,0v-8.3
			c0-1.4,0-2.5,1.7-2.5l1.2-0.1v-0.3H29v0.4l1.3,0.1c1.8,0,2.3,0.9,2.3,2.5v7.9H21.1v-7.5c0-2,0.1-2.9,1.9-2.9l1.2-0.1v-0.5H14
			c-0.1,0.9-0.8,0.9-1.9,0.5C8.9,9.5,8,9.9,6.9,10.2C5.8,10.3,2,12.1,2,16c0,2.8,1.5,4.5,2.9,5.5c1.3,0.9,2.5,1.4,3.1,1.7
			c1.3,0.9,4.5,1.4,4.6,5.3c0.1,4.6-3.1,4.4-5.5,4c-2-0.4-4.4-4.4-4.9-6.3H2.1v6.6c0.6-1.3,1.5-1.5,3.3-0.5c2.3,1.1,4.9,0.8,6.5,0.4
			c0.7-0.2,4.5-1.7,4.5-6c0-2.5-1.1-4.2-2.3-5.2c-1.3-1.1-2.6-1.5-2.9-1.6c-0.3-0.2-3-1.6-4-2.1c-1-0.5-2.7-2.1-2.1-4.7
			c0.6-3.2,3.5-2.8,4.9-2.4c1.9,0.7,3.7,3.8,4.2,6.3h0.2v-6.4c1.9,0,3,0.9,3,3.1v7.6l0,0v8.8c-0.1,0.7-0.3,1.7-1.8,2.2l-1.2,0.1v0.4
			h9.9v-0.4c0,0-0.8,0-1.2-0.1c-1-0.3-1.5-0.8-1.8-2.1v-8.6h11.4v8.6c-0.4,1.6-0.9,1.8-2.4,2.2L29,32.5v0.4h13v-0.5h-1.2
			c-2.1-0.6-2.8-2-2.3-3.8l1.9-4.8h7.9l2.4,5.7c0.9,1.7-0.3,2.6-1.7,3l-1.4-0.1v0.5h16.1v-0.5l-1.2-0.1c-1.9-0.4-2-0.8-2.2-2.5v-7.8
			h2.4c2.2-0.1,2.9,2.1,3.4,2.6c0.5,0.5,1.7,3.6,2.5,5.1c0.9,1.5,1,2,2.1,3.2h11.7v-0.5h-1.2c-1.9-0.4-2.4-1-2.7-3v-7.1l0,0l0,0
			l4.9-0.1l0,0c0.9-0.1,1.7-0.4,2.4-0.7c1.9-1,2.8-2.8,2.9-5.4C88.9,13.2,86.1,10.7,83.3,10.2z M40.7,23.1l0.9-2l2.9-6.9l3.7,8.9
			H40.7z M62.4,21.4c-0.1,0-0.1,0-0.2,0h-1.9V10.5c0,0,1.3,0,1.5,0c3.5,0.1,5.2,2.5,5.2,5.5C67,19.2,65.7,21.2,62.4,21.4z
			 M78.6,21.8L78.6,21.8L78.6,21.8L78.6,21.8z M80,21.8c-0.5,0-1.1,0-1.5,0V10.7l0,0c0.1,0,0.4,0,0.5,0l0,0c0.4,0,0.8,0,1.1,0
			c3.5-0.1,5.2,2.5,5.2,5.5C85.4,19.3,83.6,21.8,80,21.8z"/>
	</g>
	<g id="XMLID_1_">
		<g id="XMLID_64_">
			<path id="XMLID_68_" class="st1" d="M1.3,45.8h1v-8h-1v-0.2h3.8v0.2h-1v3.6h3.1v-3.6h-1v-0.2h3.8v0.2h-1v8h1V46H6.2v-0.2h1v-4.1
				H4.1v4.1h1V46H1.3V45.8z"/>
			<path id="XMLID_65_" class="st2" d="M10.2,46.1h-4v-0.5h1v-3.9H4.3v3.9h1v0.5H1.2v-0.5h1V38h-1v-0.5h4V38h-1v3.5h2.9V38h-1v-0.5
				h4.1V38h-1v7.7h1V46.1z M6.4,46H10H9v-8.2h1H6.4h1v3.8H4.1v-3.8h1H1.6h1V46h-1h3.5h-1v-4.3h3.3V46H6.4z"/>
		</g>
		<g id="XMLID_58_">
			<path id="XMLID_62_" class="st1" d="M11.8,45.8h1v-8h-1v-0.2h6.6V40h-0.2v-0.2c0-1.1-0.8-2-2.2-2h-1.4v3.6h0.8
				c0.8,0,1.2-0.5,1.2-1.5v-0.1h0.2v3.7h-0.3v-0.3c0-0.8-0.4-1.5-1.2-1.5h-0.8v4.1h1.7c2,0,2.3-1.6,2.3-2.3v-0.2h0.2v2.7h-7V45.8z"
				/>
			<path id="XMLID_59_" class="st2" d="M18.9,46.1h-7.2v-0.5h1V38h-1v-0.5h6.9v2.5h-0.5v-0.3c0-0.9-0.6-1.9-2.1-1.9h-1.3v3.5h0.7
				c0.7,0,1.1-0.5,1.1-1.5v-0.3h0.5v4h-0.5v-0.4c0-0.7-0.4-1.5-1.1-1.5h-0.7v3.9h1.6c2,0,2.2-1.8,2.2-2.2v-0.4H19v2.9H18.9z
				 M11.9,46h6.8v-2.5v0.1c0,0.4-0.1,2.4-2.4,2.4h-1.8v-4.3h0.9c0.7,0,1.3,0.6,1.3,1.6v0.2V40l0,0c0,1.2-0.4,1.6-1.3,1.6h-0.9v-3.8
				h1.5c1.4,0,2.4,0.8,2.4,2.1V40v-2.2H12h1V46H11.9z"/>
		</g>
		<g id="XMLID_49_">
			<path id="XMLID_55_" class="st1" d="M21.6,43.1l1.1-3l0,0l1,3H21.6z M19.5,46.1h2.2v-0.2h-0.4c-0.3,0-0.5-0.1-0.5-0.5
				c0-0.1,0.1-0.3,0.1-0.4l0.5-1.6h2.3l0.9,2.5h-1v0.2h3.5v-0.2h-0.5l-3.2-8.4h-0.2l-2.7,7.6c-0.2,0.4-0.4,0.6-0.8,0.7h-0.2
				C19.5,45.9,19.5,46.1,19.5,46.1z"/>
			<path id="XMLID_50_" class="st2" d="M27.3,46.1h-3.7v-0.5h0.9l-0.8-2.3h-2.2L21,45.1c0,0.1-0.1,0.2-0.1,0.4
				c0,0.3,0.2,0.4,0.5,0.4h0.5v0.5h-2.4v-0.5h0.3c0.4,0,0.5-0.2,0.7-0.6l2.8-7.7h0.4l3.2,8.4h0.6L27.3,46.1L27.3,46.1z M23.8,46h3.4
				h-0.5l-3.2-8.4l0,0l-2.7,7.6c-0.1,0.4-0.4,0.7-0.9,0.8h-0.1h1.9h-0.3c-0.5,0-0.6-0.3-0.6-0.5c0-0.2,0.1-0.3,0.1-0.4l0.6-1.7h2.5
				l0.9,2.7L23.8,46z M23.8,43.2h-2.5l1.1-3.2h0.2l0.1,0.1L23.8,43.2z M21.7,43.1h1.8l-0.9-2.6L21.7,43.1z"/>
		</g>
		<g id="XMLID_43_">
			<path id="XMLID_47_" class="st1" d="M27.7,45.8h1v-8h-1v-0.2h3.9v0.2h-1.1v8h1.4c2.1,0,2.5-1,2.5-2.5v-0.3h0.2v2.8L27.7,45.8
				L27.7,45.8L27.7,45.8z"/>
			<path id="XMLID_44_" class="st2" d="M34.8,46.1h-7.2v-0.5h1V38h-1v-0.5h4.1V38h-1.1v7.7h1.3c1.3,0,2.5-0.3,2.5-2.3v-0.4h0.5V46.1
				z M27.8,46h6.8v-2.6v0.1c0,1.2-0.3,2.5-2.7,2.5h-1.5v-8.2h1.1h-3.7h1V46L27.8,46z"/>
		</g>
		<g id="XMLID_37_">
			<path id="XMLID_41_" class="st1" d="M35.5,45.8h1.1v-8h-0.5c-1.5,0-1.9,1.1-2.1,2.4h-0.2v-2.6h7.5v2.6h-0.2
				c-0.2-1.3-0.5-2.4-2.1-2.4h-0.7v8h1.1V46h-4.1L35.5,45.8L35.5,45.8z"/>
			<path id="XMLID_38_" class="st2" d="M39.7,46.1h-4.3v-0.5h1.1V38h-0.4c-1.5,0-1.8,0.9-2,2.3v0.1h-0.4v-2.8h7.7v2.8h-0.4v-0.1
				c-0.2-1.4-0.6-2.3-2-2.3h-0.4v7.7h1.1v0.5H39.7z M35.6,46h3.9h-1.1v-8.2H39c1.6,0,2,1.2,2.2,2.4l0,0v-2.4H34v2.4l0,0
				c0.2-1.3,0.5-2.4,2.2-2.4h0.6V46H35.6z"/>
		</g>
		<g id="XMLID_31_">
			<path id="XMLID_35_" class="st1" d="M42.2,45.8h1v-8h-1v-0.2H46v0.2h-1v3.6h3.1v-3.6h-1v-0.2h3.8v0.2h-1v8h1V46h-3.8v-0.2h1v-4.1
				H45v4.1h1V46h-3.8V45.8z"/>
			<path id="XMLID_32_" class="st2" d="M51,46.1h-4v-0.5h1v-3.9h-2.9v3.9h1v0.5h-4v-0.5h1V38h-1v-0.5h4V38h-1v3.5H48V38h-1v-0.5h4
				V38h-1v7.7h1V46.1z M47.3,46h3.5h-1v-8.2h1h-3.5h1v3.8H45v-3.8h1h-3.5h1V46h-1H46h-1v-4.3h3.3V46H47.3z"/>
		</g>
		<g id="XMLID_23_">
			<path id="XMLID_28_" class="st1" d="M58.7,37.9h1c1.3,0,1.5,0.5,1.5,2.1c0,1.4-0.5,2.1-2,2.1c-0.2,0-0.4,0-0.5-0.1V37.9z
				 M55.9,46.1h4v-0.2h-1.2v-3.6c0.4,0,0.8,0.1,1.3,0.1c1.8,0,3.2-0.9,3.2-2.4c0-1.5-1-2.3-3.1-2.3h-4.3v0.2h1v8h-1L55.9,46.1
				L55.9,46.1z"/>
			<path id="XMLID_24_" class="st2" d="M59.9,46.1h-4.2v-0.5h1V38h-1v-0.5h4.4c2.1,0,3.2,0.8,3.2,2.4c0,1.5-1.4,2.5-3.3,2.5
				c-0.5,0-0.9,0-1.2,0v3.4H60L59.9,46.1L59.9,46.1z M55.9,46h3.8h-1.2v-3.8h0.1c0.1,0,0.1,0,0.2,0c-0.1,0-0.1,0-0.2,0h-0.1v-4.4
				h1.1c1.4,0,1.6,0.6,1.6,2.2c0,1.5-0.6,2.2-2,2.2c0.2,0,0.5,0,0.6,0c1.8,0,3.1-1,3.1-2.3c0-1.5-1-2.2-3-2.2h-4.2h1v8.2L55.9,46z
				 M58.8,41.9c0.1,0,0.3,0,0.4,0c1.4,0,1.9-0.6,1.9-2c0-1.5-0.2-2-1.5-2h-0.8V41.9z"/>
		</g>
		<g id="XMLID_17_">
			<path id="XMLID_21_" class="st1" d="M63.8,45.8h1v-8h-1v-0.2h3.9v0.2h-1.1v8h1.4c2.1,0,2.5-1,2.5-2.5v-0.3h0.2v2.8L63.8,45.8
				L63.8,45.8L63.8,45.8z"/>
			<path id="XMLID_18_" class="st2" d="M70.9,46.1h-7.2v-0.5h1V38h-1v-0.5h4.1V38h-1.1v7.7h1.3c1.3,0,2.5-0.3,2.5-2.3v-0.4h0.5V46.1
				z M63.9,46h6.8v-2.6v0.1c0,1.2-0.3,2.5-2.7,2.5h-1.5v-8.2h1.1l-3.7,0h1V46H63.9z"/>
		</g>
		<g id="XMLID_8_">
			<path id="XMLID_14_" class="st1" d="M73.7,43.1l1.1-3l0,0l1,3H73.7z M71.7,46.1h2.2v-0.2h-0.4c-0.3,0-0.5-0.1-0.5-0.5
				c0-0.1,0.1-0.3,0.1-0.4l0.5-1.6h2.3l0.9,2.5h-1v0.2h3.5v-0.2h-0.5l-3.2-8.4h-0.2l-2.7,7.6c-0.2,0.4-0.4,0.6-0.8,0.7h-0.2
				C71.7,45.9,71.7,46.1,71.7,46.1z"/>
			<path id="XMLID_9_" class="st2" d="M79.5,46.1h-3.7v-0.5h0.9l-0.8-2.3h-2.2l-0.5,1.6c0,0.1-0.1,0.2-0.1,0.4
				c0,0.3,0.2,0.4,0.5,0.4h0.5v0.5h-2.4v-0.5h0.3c0.4,0,0.5-0.2,0.7-0.6l2.8-7.7h0.3l3.2,8.4h0.6V46.1z M75.9,46h3.4h-0.5l-3.2-8.4
				l0,0l-2.7,7.6c-0.1,0.4-0.4,0.7-0.9,0.8h-0.1h1.9h-0.3c-0.5,0-0.6-0.3-0.6-0.5c0-0.2,0.1-0.3,0.1-0.4l0.6-1.7H76l0.9,2.7L75.9,46
				z M75.9,43.2h-2.5l1.1-3.2h0.2l0.1,0.1L75.9,43.2z M73.8,43.1h1.8l-0.9-2.6L73.8,43.1z"/>
		</g>
		<g id="XMLID_2_">
			<path id="XMLID_6_" class="st1" d="M80.3,45.8L80.3,45.8h0.2c0.4,0,0.7-0.1,0.7-0.8v-6.4l-0.5-0.7h-0.4v-0.2h2.5l4.5,5.8l0,0
				v-4.9c0-0.5-0.3-0.6-0.8-0.6h-0.2v-0.2h2.3V38h-0.1c-0.5,0-0.7,0.4-0.7,0.6v7.7h-0.5l-5.5-7.3l0,0v6c0,0.6,0.3,0.8,0.9,0.8h0.1
				v0.2h-2.3V45.8z"/>
			<path id="XMLID_3_" class="st2" d="M87.8,46.3h-0.6l0,0l-5.4-7v5.7c0,0.6,0.2,0.7,0.8,0.7h0.2v0.5h-2.5v-0.5h0.3
				c0.4,0,0.6-0.1,0.6-0.7v-6.4l-0.5-0.6h-0.5v-0.5h2.6l0,0l4.4,5.5v-4.6c0-0.4-0.3-0.5-0.7-0.5h-0.4v-0.5h2.5V38h-0.2
				c-0.5,0-0.6,0.3-0.6,0.5V46.3z M87.2,46.1h0.4v-7.5c0-0.4,0.3-0.7,0.9-0.7h0.1h-2.1h0.1c0.5,0,0.9,0.3,0.9,0.8v5h-0.2h-0.1
				l-4.5-5.8h-2.3h0.4l0.5,0.7V45c0,0.6-0.3,1-0.8,1h-0.1h2.1l0,0c-0.7,0-1-0.2-1-0.9v-6.2h0.2h0.1L87.2,46.1z"/>
		</g>
	</g>
</g>
</svg>
