<?xml version="1.0" encoding="utf-8"?>
<!-- Generator: Adobe Illustrator 21.0.2, SVG Export Plug-In . SVG Version: 6.00 Build 0)  -->
<svg version="1.1" id="Layer_1" xmlns="http://www.w3.org/2000/svg" xmlns:xlink="http://www.w3.org/1999/xlink" x="0px" y="0px"
	 viewBox="0 0 90.3 58.7" style="enable-background:new 0 0 90.3 58.7;" xml:space="preserve">
<style type="text/css">
	.st0{fill:#5C7230;}
	.st1{fill:#EFCB71;}
	.st2{fill:#E5A812;}
	.st3{fill:#EAB942;}
	.st4{fill:#F5DCA0;}
	.st5{fill:#7D8E59;}
	.st6{fill:#9DAA83;}
	.st7{fill:#BEC7AC;}
</style>
<g>
	<g>
		<g>
			<path class="st0" d="M22.2,2h1.2l-3.4,8.4h-0.3L17,3.6l-2.8,6.8h-0.3L10.5,2h1.2l2.3,5.8L16.4,2h1.2l2.3,5.8L22.2,2z"/>
			<path class="st0" d="M28.3,7.7h-3.8c0,0.5,0.2,0.9,0.5,1.2c0.3,0.3,0.8,0.5,1.2,0.5c0.7,0,1.4-0.2,2-0.7v1.1
				c-0.3,0.2-0.7,0.4-1,0.5s-0.7,0.2-1.2,0.2c-0.6,0-1.1-0.2-1.5-0.4c-0.4-0.2-0.7-0.6-0.9-1c-0.2-0.5-0.3-0.9-0.3-1.5
				c0-0.8,0.2-1.5,0.7-2.1c0.5-0.5,1.1-0.8,1.8-0.8c0.7,0,1.3,0.2,1.8,0.8c0.5,0.5,0.6,1.2,0.6,2.1V7.7z M24.4,7.1h2.8
				c0-0.5-0.2-0.8-0.4-1s-0.5-0.4-0.9-0.4c-0.4,0-0.7,0.2-0.9,0.4C24.7,6.3,24.5,6.6,24.4,7.1z"/>
			<path class="st0" d="M29.2,10V8.8c0.3,0.2,0.6,0.4,0.9,0.5c0.3,0.2,0.6,0.2,0.8,0.2c0.2,0,0.4-0.1,0.6-0.2
				c0.2-0.1,0.2-0.2,0.2-0.4c0-0.2-0.1-0.3-0.2-0.4c-0.1-0.1-0.3-0.2-0.7-0.5c-0.7-0.4-1.2-0.7-1.4-1c-0.2-0.3-0.3-0.6-0.3-0.9
				c0-0.4,0.2-0.8,0.5-1c0.3-0.2,0.8-0.4,1.3-0.4c0.5,0,1.1,0.2,1.7,0.5v1.1c-0.6-0.4-1.2-0.6-1.6-0.6c-0.2,0-0.4,0.1-0.5,0.2
				c-0.2,0.1-0.2,0.2-0.2,0.4c0,0.2,0.1,0.2,0.2,0.4c0.1,0.2,0.3,0.2,0.6,0.4l0.4,0.2c0.9,0.5,1.4,1.1,1.4,1.7
				c0,0.5-0.2,0.8-0.5,1.1c-0.4,0.3-0.8,0.5-1.4,0.5c-0.3,0-0.6,0-0.8-0.1C30,10.3,29.6,10.1,29.2,10z"/>
			<path class="st0" d="M33.5,5.7l2.1-2v1.2h1.7v1h-1.7v2.7c0,0.6,0.2,0.9,0.8,0.9c0.4,0,0.8-0.2,1.2-0.4v1
				c-0.4,0.2-0.8,0.4-1.4,0.4c-0.5,0-0.9-0.2-1.2-0.5c-0.1-0.1-0.2-0.2-0.2-0.3c-0.1-0.1-0.2-0.2-0.2-0.5c-0.1-0.2-0.1-0.5-0.1-1
				V5.8h-0.9L33.5,5.7L33.5,5.7z"/>
			<path class="st0" d="M43.1,7.7h-3.8c0,0.5,0.2,0.9,0.5,1.2c0.3,0.3,0.8,0.5,1.2,0.5c0.7,0,1.4-0.2,2-0.7v1.1
				c-0.3,0.2-0.7,0.4-1,0.5c-0.3,0.1-0.7,0.2-1.2,0.2c-0.6,0-1.1-0.2-1.5-0.4c-0.4-0.2-0.7-0.6-0.9-1c-0.2-0.5-0.3-0.9-0.3-1.5
				c0-0.8,0.2-1.5,0.7-2.1c0.5-0.5,1.1-0.8,1.8-0.8c0.7,0,1.3,0.2,1.8,0.8s0.6,1.2,0.6,2.1L43.1,7.7L43.1,7.7z M39.3,7.1h2.8
				c0-0.5-0.2-0.8-0.4-1s-0.5-0.4-0.9-0.4s-0.7,0.2-0.9,0.4C39.5,6.3,39.4,6.6,39.3,7.1z"/>
			<path class="st0" d="M45.5,4.8v1.3l0.1-0.1c0.5-0.8,1.1-1.3,1.6-1.3c0.4,0,0.8,0.2,1.3,0.6L48,6.3c-0.4-0.4-0.7-0.5-1.1-0.5
				c-0.4,0-0.7,0.2-0.9,0.5c-0.2,0.3-0.4,0.8-0.4,1.2v2.8h-1.1V4.8L45.5,4.8L45.5,4.8z"/>
			<path class="st0" d="M50.4,4.8v0.7c0.5-0.5,1.1-0.8,1.7-0.8c0.3,0,0.7,0.1,0.9,0.2c0.3,0.2,0.5,0.4,0.7,0.7S54,6.4,54,7.1v3.2
				h-1.1V7.1c0-0.5-0.1-1-0.2-1.2s-0.5-0.4-0.8-0.4c-0.5,0-0.9,0.2-1.3,0.8v3.9h-1.1V4.6h1V4.8z"/>
			<path class="st0" d="M28.1,13.4h1.2v8.4h-1.2v-3.6h-4.7v3.6h-1.2v-8.4h1.2V17h4.7V13.4z"/>
			<path class="st0" d="M35.7,19.1h-3.8c0,0.5,0.2,0.9,0.5,1.2c0.3,0.3,0.8,0.5,1.2,0.5c0.7,0,1.4-0.2,2-0.7v1.1
				c-0.3,0.2-0.7,0.4-1,0.5c-0.3,0.1-0.7,0.2-1.2,0.2c-0.6,0-1.1-0.2-1.5-0.4s-0.7-0.6-0.9-1c-0.2-0.5-0.3-0.9-0.3-1.5
				c0-0.8,0.2-1.5,0.7-2.1c0.5-0.5,1.1-0.8,1.8-0.8c0.7,0,1.3,0.2,1.8,0.8s0.6,1.2,0.6,2.1L35.7,19.1L35.7,19.1z M31.9,18.5h2.8
				c0-0.5-0.2-0.8-0.4-1c-0.2-0.2-0.5-0.4-0.9-0.4c-0.4,0-0.7,0.2-0.9,0.4C32.2,17.7,32,18,31.9,18.5z"/>
			<path class="st0" d="M40.6,18.5v2.3c0,0.2,0.1,0.3,0.2,0.3c0.2,0,0.3-0.1,0.6-0.3v0.7c-0.2,0.2-0.5,0.2-0.6,0.3
				c-0.2,0.1-0.3,0.1-0.5,0.1c-0.5,0-0.8-0.2-0.8-0.5c-0.5,0.4-0.9,0.5-1.5,0.5c-0.4,0-0.7-0.2-1-0.4c-0.2-0.2-0.4-0.5-0.4-0.9
				c0-0.4,0.2-0.7,0.4-0.9c0.2-0.3,0.6-0.5,1.1-0.6l1.4-0.5v-0.4c0-0.7-0.3-1-1-1c-0.6,0-1.2,0.3-1.8,0.9v-1.2
				c0.4-0.5,1-0.8,1.8-0.8c0.6,0,1.1,0.2,1.5,0.5c0.2,0.1,0.2,0.2,0.3,0.4c0.1,0.2,0.2,0.3,0.2,0.5C40.5,17.7,40.6,18,40.6,18.5z
				 M39.5,20.6V19l-0.8,0.3c-0.4,0.2-0.6,0.3-0.8,0.5c-0.2,0.2-0.2,0.3-0.2,0.5c0,0.2,0.1,0.4,0.2,0.5c0.2,0.2,0.3,0.2,0.5,0.2
				C38.9,21.1,39.2,20.9,39.5,20.6z"/>
			<path class="st0" d="M42.4,13.4h1.1v8.4h-1.1V13.4z"/>
			<path class="st0" d="M44.3,17.1l2.1-2v1.2H48v1h-1.7v2.7c0,0.6,0.2,0.9,0.8,0.9c0.4,0,0.8-0.2,1.2-0.4v1
				c-0.4,0.2-0.8,0.4-1.4,0.4c-0.5,0-0.9-0.2-1.2-0.5c-0.1-0.1-0.2-0.2-0.2-0.3c-0.1-0.1-0.2-0.2-0.2-0.5c-0.1-0.2-0.1-0.5-0.1-1
				v-2.5L44.3,17.1L44.3,17.1L44.3,17.1z"/>
			<path class="st0" d="M49.3,13.4h1.1v3.5c0.5-0.5,1-0.8,1.7-0.8c0.4,0,0.7,0.1,1,0.3c0.3,0.2,0.5,0.5,0.6,0.8
				c0.2,0.3,0.2,0.8,0.2,1.5v3.2h-1.1v-3.4c0-0.4-0.1-0.7-0.3-1C52.3,17.1,52,17,51.7,17c-0.2,0-0.5,0.1-0.7,0.2
				c-0.2,0.2-0.5,0.3-0.7,0.6v3.9h-1.1L49.3,13.4L49.3,13.4z"/>
			<path class="st0" d="M6.3,23h0.8l3.8,8.4H9.7l-1.1-2.5H5.1L4,31.4H2.8L6.3,23z M8.1,27.8l-1.4-3l-1.2,3H8.1z"/>
			<path class="st0" d="M15.2,23h1.1v8.4H14c-0.8,0-1.5-0.2-1.9-0.8c-0.5-0.5-0.7-1.2-0.7-2.1c0-0.8,0.2-1.5,0.8-2
				c0.5-0.5,1.2-0.8,1.9-0.8c0.4,0,0.8,0.1,1.2,0.2L15.2,23L15.2,23z M15.2,30.4v-3.5c-0.3-0.2-0.7-0.2-1-0.2c-0.5,0-1,0.2-1.3,0.5
				c-0.3,0.4-0.5,0.8-0.5,1.5c0,0.5,0.2,1,0.4,1.3c0.2,0.2,0.3,0.3,0.5,0.4c0.2,0.1,0.5,0.1,1,0.1L15.2,30.4L15.2,30.4z"/>
			<path class="st0" d="M21.2,25.8h1.2L20,31.4h-0.4l-2.5-5.6h1.2l1.5,3.4L21.2,25.8z"/>
			<path class="st0" d="M26.8,28.1v2.3c0,0.2,0.1,0.3,0.2,0.3c0.2,0,0.3-0.1,0.6-0.3v0.7c-0.2,0.2-0.5,0.2-0.6,0.3
				c-0.2,0.1-0.3,0.1-0.5,0.1c-0.5,0-0.8-0.2-0.8-0.5c-0.5,0.4-0.9,0.5-1.5,0.5c-0.4,0-0.7-0.2-0.9-0.4c-0.2-0.2-0.4-0.5-0.4-0.9
				c0-0.4,0.2-0.7,0.4-0.9c0.2-0.3,0.6-0.5,1.1-0.6l1.4-0.5v-0.3c0-0.7-0.3-1-1-1c-0.6,0-1.2,0.3-1.8,0.9v-1.2
				c0.4-0.5,1-0.8,1.8-0.8c0.6,0,1.1,0.2,1.5,0.5c0.2,0.1,0.2,0.2,0.3,0.4c0.1,0.2,0.2,0.3,0.2,0.5C26.8,27.3,26.8,27.6,26.8,28.1z
				 M25.8,30.3v-1.6L25.1,29c-0.4,0.2-0.6,0.3-0.8,0.5c-0.2,0.2-0.2,0.3-0.2,0.5c0,0.2,0.1,0.4,0.2,0.5c0.2,0.2,0.3,0.2,0.5,0.2
				C25.1,30.7,25.4,30.5,25.8,30.3z"/>
			<path class="st0" d="M29.7,25.8v0.7c0.5-0.5,1-0.8,1.7-0.8c0.3,0,0.7,0.1,0.9,0.2c0.3,0.2,0.5,0.4,0.7,0.7
				c0.2,0.3,0.2,0.8,0.2,1.5v3.2h-1.1v-3.2c0-0.5-0.1-1-0.2-1.2c-0.2-0.2-0.5-0.4-0.8-0.4c-0.5,0-0.9,0.2-1.3,0.8v3.9h-1.1v-5.4
				H29.7z"/>
			<path class="st0" d="M34,26.8l2.1-2v1.2h1.7v1h-1.7v2.7c0,0.6,0.2,0.9,0.8,0.9c0.4,0,0.8-0.2,1.2-0.4v1c-0.4,0.2-0.8,0.4-1.4,0.4
				c-0.5,0-0.9-0.2-1.2-0.5c-0.1-0.1-0.2-0.2-0.2-0.3c-0.1-0.1-0.2-0.2-0.2-0.5c-0.1-0.2-0.1-0.5-0.1-1v-2.5L34,26.8L34,26.8
				L34,26.8z"/>
			<path class="st0" d="M42.5,28.1v2.3c0,0.2,0.1,0.3,0.2,0.3c0.2,0,0.3-0.1,0.6-0.3v0.7c-0.2,0.2-0.5,0.2-0.6,0.3
				c-0.2,0.1-0.3,0.1-0.5,0.1c-0.5,0-0.8-0.2-0.8-0.5c-0.5,0.4-0.9,0.5-1.5,0.5c-0.4,0-0.7-0.2-0.9-0.4c-0.2-0.2-0.4-0.5-0.4-0.9
				c0-0.4,0.2-0.7,0.4-0.9c0.2-0.3,0.6-0.5,1.1-0.6l1.4-0.5v-0.3c0-0.7-0.3-1-1-1c-0.6,0-1.2,0.3-1.8,0.9v-1.2
				c0.5-0.5,1-0.8,1.8-0.8c0.6,0,1.1,0.2,1.5,0.5c0.2,0.1,0.2,0.2,0.3,0.4c0.1,0.2,0.2,0.3,0.2,0.5C42.5,27.3,42.5,27.6,42.5,28.1z
				 M41.5,30.3v-1.6L40.7,29c-0.4,0.2-0.6,0.3-0.8,0.5c-0.2,0.2-0.2,0.3-0.2,0.5c0,0.2,0.1,0.4,0.2,0.5c0.2,0.2,0.3,0.2,0.5,0.2
				C40.9,30.7,41.2,30.5,41.5,30.3z"/>
			<path class="st0" d="M44.1,27.8c0-0.6,0.2-1.1,0.6-1.4c0.5-0.3,1-0.5,1.8-0.5h2.2v0.8h-1.1c0.2,0.2,0.4,0.4,0.5,0.6
				c0.1,0.2,0.2,0.4,0.2,0.6c0,0.3-0.1,0.5-0.2,0.8c-0.2,0.3-0.4,0.5-0.6,0.6c-0.2,0.2-0.7,0.2-1.2,0.4c-0.4,0.1-0.6,0.2-0.6,0.5
				c0,0.2,0.1,0.2,0.2,0.3c0.2,0.1,0.5,0.2,0.8,0.2c0.7,0.2,1.1,0.2,1.3,0.4c0.2,0.1,0.4,0.2,0.5,0.4c0.2,0.2,0.4,0.6,0.4,1
				c0,0.5-0.2,0.9-0.7,1.2c-0.5,0.3-1.1,0.5-1.8,0.5c-0.8,0-1.4-0.2-1.8-0.5c-0.5-0.3-0.7-0.8-0.7-1.2c0-0.8,0.5-1.2,1.4-1.5
				c-0.4-0.2-0.5-0.5-0.5-0.7c0-0.2,0.1-0.3,0.2-0.5c0.2-0.2,0.4-0.2,0.6-0.3C44.5,29.1,44.1,28.5,44.1,27.8z M45.9,31.6
				c-0.4,0-0.7,0.1-0.9,0.2c-0.2,0.2-0.4,0.4-0.4,0.6c0,0.5,0.5,0.8,1.5,0.8c0.5,0,0.8-0.1,1.2-0.2c0.2-0.2,0.4-0.3,0.4-0.6
				c0-0.2-0.2-0.5-0.5-0.6C46.8,31.7,46.4,31.6,45.9,31.6z M46.1,26.8c-0.3,0-0.5,0.1-0.8,0.3c-0.2,0.2-0.3,0.5-0.3,0.7
				c0,0.3,0.1,0.5,0.3,0.7c0.2,0.2,0.5,0.3,0.8,0.3c0.3,0,0.5-0.1,0.8-0.3c0.2-0.2,0.3-0.5,0.3-0.7c0-0.3-0.1-0.5-0.3-0.7
				C46.7,26.9,46.4,26.8,46.1,26.8z"/>
			<path class="st0" d="M54.3,28.7h-3.8c0,0.5,0.2,0.9,0.5,1.2c0.3,0.3,0.8,0.5,1.2,0.5c0.7,0,1.4-0.2,2-0.7v1.1
				c-0.3,0.2-0.7,0.4-1,0.5c-0.3,0.1-0.7,0.2-1.2,0.2c-0.6,0-1.1-0.2-1.5-0.4c-0.4-0.2-0.7-0.6-0.9-1c-0.2-0.5-0.3-0.9-0.3-1.5
				c0-0.8,0.2-1.5,0.7-2.1c0.5-0.5,1.1-0.8,1.8-0.8c0.7,0,1.3,0.2,1.8,0.8c0.5,0.5,0.6,1.2,0.6,2.1L54.3,28.7L54.3,28.7z M50.4,28.1
				h2.8c0-0.5-0.2-0.8-0.4-1c-0.2-0.2-0.5-0.4-0.9-0.4c-0.4,0-0.7,0.2-0.9,0.4C50.7,27.3,50.5,27.6,50.4,28.1z"/>
		</g>
	</g>
	<g>
		<path class="st1" d="M57.4,39.4c-0.1,0.1,2.4,1.2,2.4,1.2l2.2,0.1c0,0,0.7-1.2,1.1-1.6c1.4-1.5,2.6-2.7,4.8-3.5
			c-1.4-0.5-2.6-0.5-4-0.8C60.4,34,58.1,36.9,57.4,39.4"/>
		<path class="st2" d="M35.6,45.1c4.2-0.1,8.1,1,11.8,2.3c-1.2,1-3.1,2.5-4,3.8c-4.9-1.8-7.6-2.5-16.1-2c0.6-0.6,3-3,3.8-3.4
			C32.4,45.3,34.1,45.1,35.6,45.1"/>
		<path class="st0" d="M56.4,44.7c-3.8,1.6-6.9,5-9.1,8c2.9,1.2,5.8,2.5,8.4,4c2-3.6,4.8-7.3,9.1-9.3C62.2,45.9,59.4,45.1,56.4,44.7
			"/>
		<path class="st3" d="M60.9,42.4c-0.9,0.3-1.8,0.6-2.6,1.1c2.9,0.4,5.4,1.6,7.8,2.9c0.4,0.2,2.8-0.7,5.8-0.2
			C68.7,44.2,65,42.4,60.9,42.4"/>
		<path class="st4" d="M82.8,32.1c-3.2,0.6-4.5,2.3-6.1,4.9c0.1-0.1,1.5,0.8,3.2,1.7c4.5-5.5,6.4-4.9,7.6-4.8
			C87.5,33.9,83.4,32,82.8,32.1"/>
		<path class="st5" d="M47.5,38.8c-3.5,0.1-7.7,0.8-10.6,2.7c-1,0.6-2.4,1.4-3,2.2c5.1-0.8,11-0.3,15.5,2.1c2.6-1.9,5.4-3.6,8.5-4.8
			C54.7,39.6,51.1,38.7,47.5,38.8"/>
		<path class="st6" d="M69.2,35.8c-2.9,0.6-4.3,3.1-5.6,5.2c5.5,1.3,8.6,3.1,12.9,6.4c0.3-2,1.3-5.3,2.6-7.1
			C74.7,37.2,69.2,35.8,69.2,35.8"/>
		<path class="st7" d="M72.2,29c-1.5,0.5-3.7,0.5-6.5,4.8c2.9,0.2,5.7,1.2,9.4,2.5c1.6-2,2.5-3.8,6.3-4.7C75.4,29.4,72.2,29,72.2,29
			"/>
	</g>
</g>
</svg>
