<?xml version="1.0" encoding="utf-8"?>
<!-- Generator: Adobe Illustrator 21.0.2, SVG Export Plug-In . SVG Version: 6.00 Build 0)  -->
<svg version="1.1" id="Layer_1" xmlns="http://www.w3.org/2000/svg" xmlns:xlink="http://www.w3.org/1999/xlink" x="0px" y="0px"
	 viewBox="0 0 30 33.1" style="enable-background:new 0 0 30 33.1;" xml:space="preserve">
<style type="text/css">
	.st0{fill:#FFFFFF;}
	.st1{fill:#564E57;}
	.st2{fill:#417A65;}
	.st3{fill:#F2BE1A;}
	.st4{fill:#31C0D1;}
</style>
<path class="st0" d="M0.5,0h30v33.1h-30V0z"/>
<g>
	<g>
		<g>
			<path class="st1" d="M11.7,11.8c-0.4,0.2-1,0.2-1.4,0c0,0-0.1,0-0.1,0c0,0,0,0.1,0,0.1v4.5c0.5,0.5,1,0.9,1.6,1.3v-5.8
				C11.8,11.9,11.8,11.8,11.7,11.8C11.7,11.8,11.7,11.8,11.7,11.8z"/>
			<circle class="st1" cx="11" cy="10.4" r="1.1"/>
		</g>
		<g>
			<path class="st2" d="M14.1,14.7c-0.4,0.2-1,0.2-1.4,0c0,0-0.1,0-0.1,0c0,0,0,0.1,0,0.1V18c0.5,0.2,1.1,0.3,1.6,0.3v-3.5
				C14.2,14.8,14.2,14.8,14.1,14.7C14.2,14.7,14.1,14.7,14.1,14.7z"/>
			<circle class="st2" cx="13.4" cy="13.3" r="1.1"/>
		</g>
		<g>
			<path class="st3" d="M16.6,9.7c-0.4,0.2-1,0.2-1.4,0c0,0-0.1,0-0.1,0c0,0,0,0.1,0,0.1v8.6c0.6,0,1.1-0.1,1.6-0.3V9.8
				C16.7,9.8,16.7,9.7,16.6,9.7C16.6,9.7,16.6,9.7,16.6,9.7z"/>
			<circle class="st3" cx="15.9" cy="8.3" r="1.1"/>
		</g>
		<g>
			<circle class="st4" cx="18.4" cy="11.4" r="1.1"/>
			<path class="st4" d="M19.2,16.4V13c0,0,0-0.1,0-0.1c0,0-0.1,0-0.1,0c-0.4,0.2-1,0.2-1.4,0c0,0-0.1,0-0.1,0c0,0,0,0.1,0,0.1v4.7
				C18.2,17.3,18.8,16.9,19.2,16.4z"/>
		</g>
	</g>
	<g>
		<g>
			<g>
				<path class="st1" d="M5.9,25C5.9,25,5.9,25,5.9,25c-0.3,0.2-0.5,0.3-0.8,0.3c-0.4,0-0.7-0.3-0.7-0.8c0-0.4,0.3-0.8,0.6-0.8
					c0.3,0,0.5,0.1,0.7,0.3c0,0,0,0,0.1,0c0,0,0,0,0-0.1v-0.7c0,0,0,0,0,0c-0.2-0.1-0.4-0.2-0.8-0.2c-0.9,0-1.5,0.6-1.5,1.5
					c0,0.9,0.6,1.5,1.5,1.5c0.3,0,0.6-0.1,0.8-0.2c0,0,0,0,0,0v-0.7C6,25,5.9,25,5.9,25"/>
				<path class="st1" d="M8.3,23.1c-0.8,0-1.5,0.6-1.5,1.5S7.5,26,8.3,26s1.5-0.6,1.5-1.5C9.8,23.7,9.1,23.1,8.3,23.1 M8.3,25.3
					c-0.4,0-0.7-0.3-0.7-0.8c0-0.4,0.3-0.8,0.7-0.8c0.4,0,0.7,0.3,0.7,0.8C9,25,8.7,25.3,8.3,25.3"/>
				<path class="st1" d="M13.3,23.2h-0.7c0,0,0,0-0.1,0l-0.6,1.9l-0.6-1.9c0,0,0,0-0.1,0h-0.7c0,0,0,0,0,0c0,0,0,0,0,0.1l1,2.7
					c0,0,0,0,0.1,0h0.8c0,0,0,0,0.1,0L13.3,23.2C13.4,23.2,13.4,23.2,13.3,23.2C13.3,23.2,13.3,23.2,13.3,23.2"/>
				<path class="st1" d="M16.1,25.3H15v-0.4h1c0,0,0.1,0,0.1-0.1v-0.6c0,0,0-0.1-0.1-0.1h-1v-0.4H16c0,0,0.1,0,0.1-0.1v-0.6
					c0,0,0-0.1-0.1-0.1h-1.8c0,0-0.1,0-0.1,0.1v2.7c0,0,0,0.1,0.1,0.1H16c0,0,0.1,0,0.1-0.1L16.1,25.3
					C16.1,25.3,16.1,25.3,16.1,25.3"/>
				<path class="st1" d="M18.8,24.9c0.3-0.2,0.5-0.5,0.5-0.8c0-0.6-0.4-1-1.2-1c-0.3,0-0.7,0-0.9,0.1c0,0,0,0,0,0.1v2.7
					c0,0,0,0.1,0.1,0.1h0.7c0,0,0.1,0,0.1-0.1v-0.8h0.1l0.6,0.8l0,0h0.8c0,0,0,0,0,0c0,0,0,0,0-0.1L18.8,24.9z M18.5,24.1
					c0,0.1-0.1,0.3-0.4,0.3h-0.1v-0.6c0.1,0,0.1,0,0.1,0C18.4,23.8,18.5,23.9,18.5,24.1"/>
				<path class="st1" d="M22.3,25.3h-1.1v-0.4h1c0,0,0.1,0,0.1-0.1v-0.6c0,0,0-0.1-0.1-0.1h-1v-0.4h1.1c0,0,0.1,0,0.1-0.1v-0.6
					c0,0,0-0.1-0.1-0.1h-1.8c0,0-0.1,0-0.1,0.1v2.7c0,0,0,0.1,0.1,0.1h1.8c0,0,0.1,0,0.1-0.1L22.3,25.3
					C22.3,25.3,22.3,25.3,22.3,25.3"/>
				<path class="st1" d="M24.3,23.1c-0.3,0-0.7,0-0.9,0.1c0,0,0,0,0,0.1v2.7c0,0,0,0,0,0.1c0.3,0.1,0.7,0.1,0.9,0.1
					c1,0,1.6-0.5,1.6-1.5C25.9,23.6,25.3,23.1,24.3,23.1 M24.4,25.3c-0.1,0-0.2,0-0.3,0v-1.5c0.1,0,0.2,0,0.2,0
					c0.4,0,0.7,0.3,0.7,0.7C25.1,25,24.8,25.3,24.4,25.3"/>
			</g>
			<g>
				<path class="st4" d="M5.5,28.7L5.5,28.7c-0.2,0.1-0.3,0.2-0.6,0.2c-0.3,0-0.5-0.2-0.5-0.6c0-0.3,0.2-0.6,0.5-0.6
					c0.2,0,0.4,0.1,0.5,0.2h0l0,0v-0.5c0,0,0,0,0,0c-0.2-0.1-0.3-0.1-0.6-0.1c-0.6,0-1.1,0.4-1.1,1.1s0.4,1.1,1.1,1.1
					c0.3,0,0.4-0.1,0.6-0.1l0,0L5.5,28.7C5.5,28.7,5.5,28.7,5.5,28.7"/>
				<path class="st4" d="M7.5,27.3L7.5,27.3l-0.6,0c0,0,0,0,0,0l-0.8,2v0h0h0.6c0,0,0,0,0,0l0.1-0.4h0.8l0.1,0.4l0,0h0.6l0,0
					c0,0,0,0,0,0v0L7.5,27.3z M7.4,28.5H7l0.2-0.6L7.4,28.5z"/>
				<path class="st4" d="M10.3,28.9H9.6v-1.5c0,0,0,0,0,0H9c0,0,0,0,0,0v2c0,0,0,0,0,0h1.3c0,0,0,0,0,0L10.3,28.9
					C10.3,28.9,10.3,28.9,10.3,28.9"/>
				<path class="st4" d="M11.6,27.3h-0.5c0,0,0,0,0,0v2c0,0,0,0,0,0h0.5c0,0,0,0,0,0L11.6,27.3C11.6,27.3,11.6,27.3,11.6,27.3"/>
				<path class="st4" d="M13.7,27.3h-1.2c0,0,0,0,0,0v2c0,0,0,0,0,0H13c0,0,0,0,0,0v-0.7h0.6c0,0,0,0,0,0v-0.4c0,0,0,0,0,0H13v-0.4
					h0.7c0,0,0,0,0,0L13.7,27.3C13.7,27.3,13.7,27.3,13.7,27.3"/>
				<path class="st4" d="M15.5,27.3c-0.6,0-1.1,0.4-1.1,1.1c0,0.6,0.5,1.1,1.1,1.1s1.1-0.4,1.1-1.1C16.6,27.7,16.1,27.3,15.5,27.3
					 M15.5,28.9c-0.3,0-0.5-0.2-0.5-0.6s0.2-0.6,0.5-0.6c0.3,0,0.5,0.2,0.5,0.6S15.8,28.9,15.5,28.9"/>
				<path class="st4" d="M18.5,28.6c0.2-0.1,0.3-0.3,0.3-0.6c0-0.5-0.3-0.7-0.9-0.7c-0.2,0-0.5,0-0.6,0.1c0,0,0,0,0,0v2c0,0,0,0,0,0
					h0.5c0,0,0,0,0,0v-0.6H18l0.4,0.6h0H19c0,0,0,0,0,0v0L18.5,28.6z M18.3,28c0,0.2-0.1,0.3-0.3,0.3h-0.1v-0.5c0,0,0.1,0,0.1,0
					C18.1,27.7,18.3,27.8,18.3,28"/>
				<path class="st4" d="M21.5,27.3h-0.5c0,0,0,0,0,0v1.1l-0.8-1.1h0h-0.5c0,0,0,0,0,0v2c0,0,0,0,0,0h0.5c0,0,0,0,0,0v-1.1l0.8,1.1
					h0h0.5c0,0,0,0,0,0L21.5,27.3C21.6,27.3,21.5,27.3,21.5,27.3"/>
				<path class="st4" d="M23,27.3h-0.5c0,0,0,0,0,0v2c0,0,0,0,0,0H23c0,0,0,0,0,0L23,27.3C23,27.3,23,27.3,23,27.3"/>
				<path class="st4" d="M25.9,29.3l-0.8-2l0,0h-0.6c0,0,0,0,0,0l-0.8,2v0h0h0.5c0,0,0,0,0,0l0.1-0.4h0.8l0.1,0.4l0,0L25.9,29.3
					L25.9,29.3C25.9,29.4,25.9,29.3,25.9,29.3C25.9,29.3,25.9,29.3,25.9,29.3 M25,28.5h-0.4l0.2-0.6L25,28.5z"/>
			</g>
			<path class="st1" d="M14.7,1C8.6,1,3.6,6.1,3.6,12.4c0,3,1.1,5.8,3.2,8L8,19.1c-1.6-1.8-2.5-4.1-2.5-6.6C5.5,7.3,9.6,3,14.7,3
				s9.2,4.3,9.2,9.6c0,2.4-0.9,4.8-2.5,6.5l1.3,1.3c2-2.2,3.2-5,3.2-8C25.9,6.1,20.9,1,14.7,1"/>
			<path class="st4" d="M14.7,3.2c-4.9,0-8.9,4.2-8.9,9.3c0,2.4,0.9,4.6,2.4,6.4l0.9-0.9c0.3-0.3,0.4-1,0.1-1.3
				c-0.1-0.1-1.5-2.3-1.5-4.2v-0.3c0.2-3.8,3.2-6.8,7-6.8c3.8,0,6.8,3,7,6.8v0.3c-0.1,2-1.4,4.1-1.5,4.2c-0.3,0.4-0.2,1,0.1,1.4
				l0.8,0.9c1.5-1.7,2.4-4,2.4-6.3C23.6,7.4,19.6,3.2,14.7,3.2"/>
		</g>
	</g>
</g>
</svg>
